<?xml version="1.0" encoding="utf-8"?>
<!-- Generator: Adobe Illustrator 19.2.1, SVG Export Plug-In . SVG Version: 6.00 Build 0)  -->
<svg version="1.1" xmlns="http://www.w3.org/2000/svg" xmlns:xlink="http://www.w3.org/1999/xlink" x="0px" y="0px" width="24px"
	 height="24px" viewBox="0 0 24 24" enable-background="new 0 0 24 24" xml:space="preserve">
<g id="Filled_Icons_1_">
	<g id="Filled_Icons">
		<g>
			<path d="M10.5,13.663V12.28c0.7-0.539,0.946-1.551,0.991-2.43c0.441-0.291,0.655-0.958,0.655-1.498
				c0-0.429-0.13-0.871-0.466-1.136c0.534-1.24,0.441-2.176,0.154-2.732C11.267,3.388,9.733,3,8.5,3
				C7.277,3,5.734,3.398,5.177,4.455c-0.433-0.02-0.842,0.108-1.078,0.463C3.687,5.54,4.066,6.521,4.356,7.205
				C4,7.468,3.859,7.928,3.859,8.369c0,0.535,0.219,1.196,0.65,1.482c0.028,0.55,0.138,1.163,0.383,1.659
				c0.001,0.002,0.002,0.004,0.003,0.006C5.087,11.9,5.315,12.138,5.5,12.28c0,3.315,0-2.001,0,1.383
				c-1.751,0.713-5.021,2.156-5.451,3.135c-0.002,0.005-0.006,0.01-0.008,0.015C0.014,16.878,0,16.94,0,17v4.5
				C0,21.776,0.224,22,0.5,22C9.443,22,16,22,16,22v-0.5V17C16,15.917,11.54,14.087,10.5,13.663z"/>
			<path d="M20.933,15.188c-0.471-0.17-0.961-0.346-1.433-0.528v-0.857c0.373-0.248,0.907-0.805,0.989-1.984
				C20.828,11.533,21,10.956,21,10.382c0-0.513-0.138-0.864-0.333-1.081c0.245-0.446,0.568-1.176,0.307-1.959
				C20.614,6.26,19.146,5.875,18,5.875c-1.001,0-2.247,0.293-2.787,1.088c-0.529-0.017-0.801,0.221-0.936,0.418
				c-0.364,0.53-0.107,1.303,0.105,1.861c-0.196,0.217-0.395,0.614-0.395,1.127c0.001,0.574,0.185,1.167,0.524,1.452
				c0.083,1.177,0.616,1.734,0.989,1.981v0.857c-0.111,0.043-0.225,0.085-0.338,0.127C16.799,15.793,17,16.449,17,17v5h6.5
				c0.276,0,0.5-0.224,0.5-0.5V17C24,16.318,23.115,15.973,20.933,15.188z"/>
		</g>
	</g>
	<g id="New_icons">
	</g>
</g>
<g id="Invisible_Shape">
	<rect fill="none" width="24" height="24"/>
</g>
</svg>
