<?xml version="1.0" encoding="utf-8"?>
<!-- Generator: Adobe Illustrator 19.2.1, SVG Export Plug-In . SVG Version: 6.00 Build 0)  -->
<svg version="1.1" xmlns="http://www.w3.org/2000/svg" xmlns:xlink="http://www.w3.org/1999/xlink" x="0px" y="0px" width="24px"
	 height="24px" viewBox="0 0 24 24" enable-background="new 0 0 24 24" xml:space="preserve">
<g id="Filled_Icons_1_">
	<g id="Filled_Icons">
		<path d="M23.888,22.625l-5-19.364c-0.068-0.269-0.341-0.429-0.608-0.36l-2.905,0.75c-0.268,0.069-0.428,0.343-0.359,0.61L15.981,8
			H11V0.5C11,0.224,10.775,0,10.5,0h-6C4.224,0,4,0.224,4,0.5V3H0.5C0.224,3,0,3.224,0,3.5v20C0,23.776,0.224,24,0.5,24h16
			c0.275,0,0.5-0.224,0.5-0.5V11.946l3.016,11.679c0.067,0.258,0.327,0.428,0.609,0.359l2.904-0.75
			C23.797,23.165,23.957,22.894,23.888,22.625z M3,20.5C3,20.776,2.775,21,2.5,21C2.224,21,2,20.776,2,20.5v-14
			C2,6.224,2.224,6,2.5,6C2.775,6,3,6.224,3,6.5V20.5z M7,2.5C7,2.224,7.224,2,7.5,2C7.775,2,8,2.224,8,2.5v13
			C8,15.776,7.775,16,7.5,16C7.224,16,7,15.776,7,15.5V2.5z M9,21.5C9,21.776,8.775,22,8.5,22h-2C6.224,22,6,21.776,6,21.5v-4
			C6,17.224,6.224,17,6.5,17h2C8.775,17,9,17.224,9,17.5V21.5z M13,10.5c0-0.276,0.224-0.5,0.5-0.5c0.275,0,0.5,0.224,0.5,0.5v9
			c0,0.276-0.225,0.5-0.5,0.5c-0.276,0-0.5-0.224-0.5-0.5V10.5z M14.5,22h-2c-0.276,0-0.5-0.224-0.5-0.5c0-0.276,0.224-0.5,0.5-0.5
			h2c0.275,0,0.5,0.224,0.5,0.5C15,21.776,14.775,22,14.5,22z"/>
	</g>
	<g id="New_icons">
	</g>
</g>
<g id="Invisible_Shape">
	<rect fill="none" width="24" height="24"/>
</g>
</svg>
