<?xml version="1.0" encoding="utf-8"?>
<!-- Generator: Adobe Illustrator 19.2.1, SVG Export Plug-In . SVG Version: 6.00 Build 0)  -->
<svg version="1.1" xmlns="http://www.w3.org/2000/svg" xmlns:xlink="http://www.w3.org/1999/xlink" x="0px" y="0px" width="24px"
	 height="24px" viewBox="0 0 24 24" enable-background="new 0 0 24 24" xml:space="preserve">
<g id="Filled_Icons_1_">
	<g id="Filled_Icons">
		<g>
			<path d="M22.628,1.723c-0.43-0.35-1.06-0.281-1.406,0.149L9.42,16.506l-4.213-4.213c-0.39-0.391-1.024-0.391-1.414,0
				c-0.391,0.392-0.391,1.025,0,1.413l5,5C8.981,18.895,9.236,19,9.5,19c0.292,0,0.583-0.13,0.778-0.372l12.5-15.5
				C23.125,2.698,23.058,2.068,22.628,1.723z"/>
			<path d="M19,11c-0.552,0-1,0.447-1,1v10H2V5.998h12C14.552,6,15,5.552,15,5c0-0.553-0.448-1-1-1H1C0.448,4,0,4.447,0,5v18
				c0,0.552,0.448,1,1,0.999h18C19.552,24,20,23.552,20,23V12C20,11.447,19.552,11,19,11z"/>
		</g>
	</g>
	<g id="New_icons">
	</g>
</g>
<g id="Invisible_Shape">
	<rect fill="none" width="24" height="24"/>
</g>
</svg>
