<?xml version="1.0" encoding="utf-8"?>
<!-- Generator: Adobe Illustrator 19.2.1, SVG Export Plug-In . SVG Version: 6.00 Build 0)  -->
<svg version="1.1" xmlns="http://www.w3.org/2000/svg" xmlns:xlink="http://www.w3.org/1999/xlink" x="0px" y="0px" width="24px"
	 height="24px" viewBox="0 0 24 24" enable-background="new 0 0 24 24" xml:space="preserve">
<g id="Filled_Icons">
	<path d="M19.854,6.147l-6-6C13.76,0.053,13.632,0,13.5,0h-11C2.224,0,2,0.224,2,0.5v23C2,23.776,2.224,24,2.5,24h17
		c0.275,0,0.5-0.224,0.5-0.5v-17C20,6.367,19.947,6.241,19.854,6.147z M16.998,12.544c-0.025,0.276-0.266,0.478-0.543,0.454
		c-0.275-0.024-0.478-0.267-0.453-0.542c0.058-0.651-0.086-1.144-0.438-1.504c-0.518-0.53-1.383-0.668-1.898-0.703l-0.641,6.997
		c-0.023,1.602-1.97,2.861-3.955,2.861c-1.523,0-2.701-0.737-2.933-1.832c-0.288-1.372,0.989-2.763,2.91-3.167
		c1.061-0.224,2.259-0.117,3.122,0.52l0.543-5.93c0.023-0.245,0.22-0.438,0.466-0.453c0.081-0.005,2.003-0.117,3.101,1.009
		C16.84,10.827,17.082,11.598,16.998,12.544z M13,7V1l6,6H13z"/>
</g>
<g id="Invisible_Shape">
	<rect fill="none" width="24" height="24"/>
</g>
</svg>
