<?xml version="1.0" encoding="utf-8"?>
<!-- Generator: Adobe Illustrator 19.2.0, SVG Export Plug-In . SVG Version: 6.00 Build 0)  -->
<svg version="1.1" xmlns="http://www.w3.org/2000/svg" xmlns:xlink="http://www.w3.org/1999/xlink" x="0px" y="0px" width="24px"
	 height="24px" viewBox="0 0 24 24" enable-background="new 0 0 24 24" xml:space="preserve">
<g id="Filled_Icons">
	<path d="M18.5,8.5c-1.415,0-2.747,0.531-3.773,1.5H14V8.5C14,8.225,13.776,8,13.5,8H12V5.5C12,3.57,10.43,2,8.5,2h-3
		C5.224,2,5,2.225,5,2.5C5,2.776,5.224,3,5.5,3h3C9.878,3,11,4.121,11,5.5V8h-0.5C10.224,8,10,8.225,10,8.5V10H9.271
		C8.246,9.031,6.915,8.5,5.5,8.5C2.467,8.5,0,10.968,0,14s2.467,5.5,5.5,5.5c1.415,0,2.746-0.531,3.771-1.5h5.456
		c1.025,0.969,2.357,1.5,3.773,1.5c3.032,0,5.5-2.468,5.5-5.5S21.532,8.5,18.5,8.5z M7.5,14H6v1.5C6,15.776,5.776,16,5.5,16
		S5,15.776,5,15.5V14H3.5C3.224,14,3,13.776,3,13.5C3,13.225,3.224,13,3.5,13H5v-1.5C5,11.225,5.224,11,5.5,11S6,11.225,6,11.5V13
		h1.5C7.776,13,8,13.225,8,13.5C8,13.776,7.776,14,7.5,14z M11,9h2v1h-2V9z M11,16h-1c-0.276,0-0.5-0.224-0.5-0.5
		c0-0.275,0.224-0.5,0.5-0.5h1c0.276,0,0.5,0.225,0.5,0.5C11.5,15.776,11.276,16,11,16z M14,16h-1c-0.276,0-0.5-0.224-0.5-0.5
		c0-0.275,0.224-0.5,0.5-0.5h1c0.276,0,0.5,0.225,0.5,0.5C14.5,15.776,14.276,16,14,16z M17.793,11.293
		c0.378-0.379,1.036-0.379,1.414,0C19.396,11.481,19.5,11.733,19.5,12c0,0.268-0.104,0.519-0.293,0.707
		C19.018,12.896,18.767,13,18.5,13c-0.268,0-0.519-0.104-0.707-0.293C17.604,12.519,17.5,12.268,17.5,12
		C17.5,11.733,17.604,11.481,17.793,11.293z M17.207,14.707C17.018,14.896,16.767,15,16.5,15c-0.268,0-0.519-0.104-0.707-0.293
		c-0.189-0.188-0.293-0.438-0.294-0.705c0-0.268,0.105-0.52,0.294-0.709c0.374-0.377,1.034-0.379,1.413-0.001
		C17.597,13.683,17.597,14.317,17.207,14.707z M19.207,16.707C19.018,16.896,18.767,17,18.5,17c-0.268,0-0.519-0.104-0.707-0.293
		C17.604,16.52,17.5,16.268,17.5,16c0-0.267,0.104-0.519,0.293-0.707c0.378-0.379,1.036-0.379,1.414,0
		C19.396,15.481,19.5,15.733,19.5,16C19.5,16.268,19.396,16.52,19.207,16.707z M21.207,14.707C21.018,14.896,20.767,15,20.5,15
		c-0.268,0-0.519-0.104-0.707-0.293C19.604,14.519,19.5,14.268,19.5,14c0-0.267,0.104-0.519,0.293-0.707
		c0.378-0.379,1.036-0.379,1.414,0C21.396,13.481,21.5,13.733,21.5,14C21.5,14.268,21.396,14.519,21.207,14.707z"/>
</g>
<g id="invisible_shape">
	<rect fill="none" width="24" height="24"/>
</g>
</svg>
