<?xml version="1.0" encoding="utf-8"?>
<!-- Generator: Adobe Illustrator 19.2.1, SVG Export Plug-In . SVG Version: 6.00 Build 0)  -->
<svg version="1.1" xmlns="http://www.w3.org/2000/svg" xmlns:xlink="http://www.w3.org/1999/xlink" x="0px" y="0px" width="24px"
	 height="24px" viewBox="0 0 24 24" enable-background="new 0 0 24 24" xml:space="preserve">
<g id="Filled_Icon">
	<path d="M23.5,23H23V8.5C23,8.224,22.775,8,22.5,8h-3C19.224,8,19,8.224,19,8.5V23h-2v-7.5c0-0.276-0.225-0.5-0.5-0.5h-3
		c-0.276,0-0.5,0.224-0.5,0.5V23h-2v-9.5c0-0.276-0.225-0.5-0.5-0.5h-3C7.224,13,7,13.224,7,13.5V23H5v-4.5
		C5,18.224,4.775,18,4.5,18h-3C1.224,18,1,18.224,1,18.5V23H0.5C0.224,23,0,23.224,0,23.5C0,23.775,0.224,24,0.5,24h23
		c0.275,0,0.5-0.225,0.5-0.5C24,23.224,23.775,23,23.5,23z"/>
</g>
<g id="Invisibla_Shape">
	<rect fill="none" width="24" height="24"/>
</g>
</svg>
