<?xml version="1.0" encoding="UTF-8"?>
<svg width="1001px" height="90px" viewBox="0 0 1001 90" version="1.1" xmlns="http://www.w3.org/2000/svg" xmlns:xlink="http://www.w3.org/1999/xlink">
    <!-- Generator: Sketch 46.2 (44496) - http://www.bohemiancoding.com/sketch -->
    <title>Page 1</title>
    <desc>Created with Sketch.</desc>
    <defs></defs>
    <g id="Page-1" stroke="none" stroke-width="1" fill="none" fill-rule="evenodd">
        <path d="M490.285357,0 L510.176108,0 C520.569201,14.6614 537.14589,24.8642 559.90458,30.6085 C582.661678,36.3527 605.509593,39.2248 628.446733,39.2248 C646.366573,39.2248 668.228237,38.4042 694.033316,36.763 C740.266089,33.6994 773.776365,32.1676 794.564144,32.1676 C845.097233,32.1676 889.806811,37.3374 928.69288,47.677 C967.578949,58.0166 991.680791,71.9394 1001,89.4456 C973.523018,76.2065333 952.019316,67.3987333 936.488895,63.0222 C913.193262,56.4574 886.671198,53.175 856.924295,53.175 C840.079932,53.175 819.650646,53.8315 795.638028,55.1444 C737.2197,58.4269 699.409109,60.0681 682.206254,60.0681 C642.783243,60.0681 607.39128,55.8009 576.031958,47.2667 C544.672637,38.7324 519.85381,27.4081 501.575477,13.2938 C460.001512,44.1484 397.461318,59.5757 313.954896,59.5757 C295.318071,59.5757 263.061722,58.1533 217.187441,55.3086 C187.082046,53.3391 162.890979,52.3544 144.612647,52.3544 C101.605137,52.3544 53.4009214,64.7181333 0,89.4456 C10.3934116,72.1583 34.9436083,58.208 73.6502715,47.5949 C112.357094,36.9818 156.977289,31.6752 207.511333,31.6752 C228.297519,31.6752 260.016926,33.1523 302.664775,36.1065 C331.694693,38.0759 351.943937,39.0607 363.4141,39.0607 C394.951872,39.0607 422.458595,35.5321 445.93427,28.4749 C469.408353,21.4177 484.192579,11.9261 490.285357,0 Z" fill="#C7D1C5"></path>
    </g>
</svg>