<?xml version="1.0" encoding="UTF-8" standalone="no"?><!DOCTYPE svg PUBLIC "-//W3C//DTD SVG 1.1//EN" "http://www.w3.org/Graphics/SVG/1.1/DTD/svg11.dtd"><svg width="100%" height="100%" viewBox="0 0 350 312" version="1.1" xmlns="http://www.w3.org/2000/svg" xmlns:xlink="http://www.w3.org/1999/xlink" xml:space="preserve" xmlns:serif="http://www.serif.com/" style="fill-rule:evenodd;clip-rule:evenodd;stroke-linejoin:round;stroke-miterlimit:1.41421;"><path d="M349.914,153.001c-7.226,2.462 -14.526,4.735 -21.608,7.558c-1.292,0.515 -2.384,3.264 -2.397,4.99c-0.158,19.829 -0.086,39.659 -0.085,59.489c0.001,19.33 -0.045,38.66 0.023,57.99c0.01,2.729 -0.365,4.639 -3.374,5.734c-20.773,7.564 -41.488,15.288 -62.229,22.942c-0.274,0.102 -0.64,-0.043 -1.375,-0.111c-0.149,-1.154 -0.45,-2.396 -0.45,-3.639c0.016,-72.654 0.053,-145.308 0.098,-217.962c0.025,-40.429 27.685,-76.061 66.956,-85.815c8,-1.987 16.288,-2.814 24.442,-4.177c0,20.333 0,40.667 0,61c-2.107,-0.355 -4.21,-0.746 -6.323,-1.062c-8.942,-1.335 -16.88,3.769 -17.504,12.61c-0.766,10.846 -0.183,21.787 -0.183,33.631c8.451,-2.879 16.23,-5.529 24.01,-8.18c-0.001,18.335 -0.001,36.669 -0.001,55.002Z" style="fill:#e92428;"/><path d="M158.345,106.616c0.095,2.047 0.222,3.505 0.222,4.962c0.006,56.487 -0.047,112.975 0.094,169.461c0.01,4.037 -1.195,5.712 -5.008,7.072c-18.773,6.697 -37.406,13.788 -56.104,20.701c-1.672,0.618 -3.446,0.961 -5.603,1.549c0,-15.906 0.068,-31.381 -0.013,-46.854c-0.22,-42.298 -0.448,-84.595 -0.846,-126.891c-0.039,-4.124 1.115,-5.928 5.188,-7.368c19.113,-6.76 38.054,-14.008 57.064,-21.062c1.501,-0.557 3.057,-0.963 5.006,-1.57Z" style="fill:#e92428;"/><path d="M72.704,310.583c-21.884,-8.075 -43.084,-15.836 -64.189,-23.845c-1.203,-0.457 -2.324,-2.935 -2.331,-4.478c-0.133,-30.819 -0.096,-61.641 -0.095,-92.461c0.002,-27.481 0,-54.964 0,-83.259c7.621,2.723 14.854,5.241 22.039,7.889c13.548,4.992 27.043,10.129 40.621,15.037c2.829,1.022 4.258,2.165 4.251,5.547c-0.119,57.476 -0.092,114.952 -0.104,172.429c0,0.81 -0.096,1.621 -0.192,3.141Z" style="fill:#0f7ca8;"/><path d="M242.875,310.627c-10.717,-3.889 -20.829,-7.533 -30.923,-11.227c-10.59,-3.875 -21.133,-7.88 -31.761,-11.644c-2.84,-1.006 -4.221,-2.192 -4.214,-5.565c0.114,-57.781 0.078,-115.563 0.084,-173.345c0,-0.487 0.111,-0.975 0.261,-2.192c8.077,2.919 15.972,5.699 23.812,8.624c12.915,4.817 25.729,9.919 38.735,14.473c3.397,1.189 4.157,2.731 4.15,6.016c-0.118,54.617 -0.118,109.234 -0.145,163.853c0,3.312 0.001,6.625 0.001,11.007Z" style="fill:#0f7ca8;"/><path d="M111.35,104.374c-15.571,-0.313 -25.599,-10.227 -25.676,-25.962c-0.062,-12.442 4.396,-23.427 11.943,-33.128c9.449,-12.147 21.068,-20.831 36.801,-23.46c17.646,-2.948 31.024,10.385 30.038,28.301c-1.324,24.035 -23.423,48.431 -44.776,52.94c-2.746,0.58 -5.552,0.879 -8.33,1.309Z" style="fill:#e92428;"/><path d="M170.345,48.635c-0.675,-20.953 16.457,-32.623 38.345,-24.484c22.334,8.304 36.075,24.972 39.608,48.417c3.056,20.271 -8.947,33.757 -29.851,30.963c-24.911,-3.33 -48.113,-29.833 -48.102,-54.896Z" style="fill:#0f7ca8;"/><path d="M0.019,48.81c-0.675,-20.953 16.457,-32.623 38.345,-24.484c22.334,8.304 36.075,24.972 39.608,48.417c3.056,20.271 -8.947,33.757 -29.851,30.963c-24.911,-3.33 -48.112,-29.832 -48.102,-54.896Z" style="fill:#0f7ca8;"/></svg>