<?xml version="1.0" encoding="utf-8"?>
<!-- Generator: Adobe Illustrator 19.2.1, SVG Export Plug-In . SVG Version: 6.00 Build 0)  -->
<svg version="1.1" xmlns="http://www.w3.org/2000/svg" xmlns:xlink="http://www.w3.org/1999/xlink" x="0px" y="0px" width="24px"
	 height="24px" viewBox="0 0 24 24" enable-background="new 0 0 24 24" xml:space="preserve">
<g id="Filled_Icon">
	<g>
		<path d="M10,5.995h13c0.552,0,1-0.448,1-1c0-0.552-0.448-1-1-0.993H10C9.447,3.995,9,4.443,9,4.995C9,5.547,9.447,5.995,10,5.995z
			"/>
		<path d="M23,12H10c-0.553,0-1,0.447-1,1s0.447,1,1,1h13c0.552,0,1-0.447,1-1S23.552,12,23,12z"/>
		<path d="M23,20H10c-0.553,0-1,0.447-1,1s0.447,1,1,1h13c0.552,0,1-0.447,1-1S23.552,20,23,20z"/>
		<path d="M6,3.502H5.266l0.592-0.986c0.284-0.473,0.131-1.087-0.343-1.371C5.041,0.86,4.427,1.014,4.143,1.486L3.5,2.559
			L2.857,1.486C2.573,1.014,1.959,0.86,1.485,1.145C1.012,1.429,0.858,2.043,1.143,2.516l0.591,0.986H1c-0.553,0-1,0.447-1,1
			c0,0.553,0.447,1,1,1h0.733L1.143,6.486C0.858,6.961,1.012,7.575,1.485,7.859c0.483,0.287,1.091,0.125,1.372-0.344L3.5,6.445
			l0.643,1.07c0.281,0.469,0.89,0.631,1.372,0.344c0.474-0.284,0.627-0.898,0.343-1.373L5.266,5.502H6c0.552,0,1-0.447,1-1
			C7,3.949,6.552,3.502,6,3.502z"/>
		<path d="M6,11.502H5.266l0.592-0.986c0.284-0.473,0.131-1.087-0.343-1.371C5.041,8.86,4.427,9.014,4.143,9.486L3.5,10.559
			L2.857,9.486C2.573,9.014,1.959,8.861,1.485,9.144c-0.474,0.284-0.627,0.899-0.343,1.371l0.591,0.986H1c-0.553,0-1,0.447-1,1
			c0,0.553,0.447,1,1,1h0.733l-0.591,0.984c-0.284,0.475-0.131,1.089,0.343,1.373c0.483,0.287,1.091,0.125,1.372-0.344l0.643-1.07
			l0.643,1.07c0.281,0.469,0.89,0.631,1.372,0.344c0.474-0.284,0.627-0.898,0.343-1.373l-0.592-0.984H6c0.552,0,1-0.447,1-1
			C7,11.949,6.552,11.502,6,11.502z"/>
		<path d="M6,19.502H5.266l0.592-0.986c0.284-0.473,0.131-1.087-0.343-1.371c-0.474-0.284-1.088-0.131-1.372,0.342L3.5,18.559
			l-0.643-1.072c-0.284-0.473-0.898-0.626-1.372-0.342c-0.474,0.284-0.627,0.898-0.343,1.371l0.591,0.986H1c-0.553,0-1,0.447-1,1
			c0,0.553,0.447,1,1,1h0.733l-0.591,0.984c-0.284,0.475-0.131,1.089,0.343,1.373c0.483,0.287,1.091,0.125,1.372-0.344l0.643-1.07
			l0.643,1.07c0.281,0.469,0.89,0.631,1.372,0.344c0.474-0.284,0.627-0.899,0.343-1.373l-0.592-0.984H6c0.552,0,1-0.447,1-1
			C7,19.949,6.552,19.502,6,19.502z"/>
	</g>
</g>
<g id="Invisible_Shape">
	<rect fill="none" width="24" height="24"/>
</g>
</svg>
