<?xml version="1.0" encoding="utf-8"?>
<!-- Generator: Adobe Illustrator 19.2.0, SVG Export Plug-In . SVG Version: 6.00 Build 0)  -->
<svg version="1.1" xmlns="http://www.w3.org/2000/svg" xmlns:xlink="http://www.w3.org/1999/xlink" x="0px" y="0px" width="24px"
	 height="24px" viewBox="0 0 24 24" enable-background="new 0 0 24 24" xml:space="preserve">
<g id="Filled_Icons_1_">
	<g>
		<path d="M0.271,0.062C0.105,0.148,0,0.319,0,0.506v16c0,0.162,0.078,0.313,0.209,0.407L7,21.764V4.535L0.79,0.099
			C0.638-0.009,0.438-0.025,0.271,0.062z"/>
		<path d="M19.5,11.006c0.896,0,1.739,0.22,2.487,0.602C21.994,11.575,22,11.542,22,11.506v-6c0-0.162-0.078-0.313-0.21-0.407
			L15,0.25v13.104C15.995,11.938,17.64,11.006,19.5,11.006z"/>
		<polygon points="8,21.764 14,17.478 14,0.25 8,4.535 		"/>
		<path d="M19.5,12.006c-2.481,0-4.5,2.019-4.5,4.5c0,2.002,2.839,5.803,4.116,7.321l0,0c0.095,0.114,0.235,0.179,0.384,0.179
			s0.289-0.065,0.384-0.179C21.178,22.255,24,18.528,24,16.506C24,14.025,21.981,12.006,19.5,12.006z M19.5,18.506
			c-1.104,0-2-0.897-2-2c0-1.102,0.896-2,2-2c1.103,0,2,0.898,2,2C21.5,17.609,20.603,18.506,19.5,18.506z"/>
	</g>
</g>
<g id="invisible_shape">
	<rect fill="none" width="24" height="24"/>
</g>
</svg>
