<?xml version="1.0" encoding="utf-8"?>
<!-- Generator: Adobe Illustrator 19.2.1, SVG Export Plug-In . SVG Version: 6.00 Build 0)  -->
<svg version="1.1" xmlns="http://www.w3.org/2000/svg" xmlns:xlink="http://www.w3.org/1999/xlink" x="0px" y="0px" width="24px"
	 height="24px" viewBox="0 0 24 24" enable-background="new 0 0 24 24" xml:space="preserve">
<g id="Filled_Icon">
	<g>
		<path d="M12.5,19c3.415,0,6.218-2.649,6.475-6H6.025C6.282,16.351,9.085,19,12.5,19z"/>
		<path d="M19,11h-4.5c-0.276,0-0.5-0.224-0.5-0.5s0.224-0.5,0.5-0.5H19V9h-4.5C14.224,9,14,8.776,14,8.5S14.224,8,14.5,8H19V7h-4.5
			C14.224,7,14,6.776,14,6.5S14.224,6,14.5,6h4.475C18.784,3.519,17.2,1.422,15,0.502V3.5C15,3.776,14.776,4,14.5,4S14,3.776,14,3.5
			V0.182c-0.325-0.077-0.658-0.13-1-0.156V3.5C13,3.776,12.776,4,12.5,4S12,3.776,12,3.5V0.025c-0.342,0.026-0.675,0.079-1,0.156
			V3.5C11,3.776,10.776,4,10.5,4S10,3.776,10,3.5V0.502C7.8,1.422,6.216,3.519,6.025,6H10.5C10.776,6,11,6.224,11,6.5
			S10.776,7,10.5,7H6v1h4.5C10.776,8,11,8.224,11,8.5S10.776,9,10.5,9H6v1h4.5c0.276,0,0.5,0.224,0.5,0.5S10.776,11,10.5,11H6v1h13
			V11z"/>
		<path d="M5,10.5C5,10.224,4.776,10,4.5,10S4,10.224,4,10.5V12h1V10.5z"/>
		<path d="M20.5,10c-0.276,0-0.5,0.224-0.5,0.5V12h1v-1.5C21,10.224,20.776,10,20.5,10z"/>
		<path d="M12.5,20c-4.037,0-7.225-3.037-7.476-7h-1c0.243,4.356,3.619,7.732,7.976,7.976V24h1v-3.024
			c4.357-0.243,7.732-3.619,7.976-7.976h-1C19.725,16.963,16.537,20,12.5,20z"/>
	</g>
</g>
<g id="Invisible_Shape">
	<rect fill="none" width="24" height="24"/>
</g>
</svg>
