<?xml version="1.0" encoding="utf-8"?>
<!-- Generator: Adobe Illustrator 19.2.1, SVG Export Plug-In . SVG Version: 6.00 Build 0)  -->
<svg version="1.1" xmlns="http://www.w3.org/2000/svg" xmlns:xlink="http://www.w3.org/1999/xlink" x="0px" y="0px" width="24px"
	 height="24px" viewBox="0 0 24 24" enable-background="new 0 0 24 24" xml:space="preserve">
<g id="Filled_Icons_1_">
	<g id="Filled_Icons">
		<path d="M23.5,1.5C23.224,1.5,23,1.724,23,2v6c0,2.569-1.555,3.739-3,3.739S17,10.569,17,8V5.5c0-3.489-2.722-5.393-5.639-5.393
			C8.697,0.107,6,1.788,6,5H3.5C1.57,5,0,6.57,0,8.5v9C0,21.084,2.916,24,6.5,24s6.5-2.916,6.5-6.5v-9C13,6.57,11.43,5,9.5,5H7
			c0-2.674,2.261-3.893,4.361-3.893C13.835,1.107,16,2.667,16,5.5V8c0,3.111,2.012,4.739,4,4.739S24,11.111,24,8V2
			C24,1.724,23.776,1.5,23.5,1.5z M3.5,6H6v4H1V8.5C1,7.121,2.122,6,3.5,6z M9.5,6C10.878,6,12,7.121,12,8.5V10H7V6H9.5z"/>
	</g>
	<g id="New_icons">
	</g>
</g>
<g id="Invisible_Shape">
	<rect fill="none" width="24" height="24"/>
</g>
</svg>
