<?xml version="1.0" encoding="utf-8"?>
<!-- Generator: Adobe Illustrator 19.2.1, SVG Export Plug-In . SVG Version: 6.00 Build 0)  -->
<svg version="1.1" xmlns="http://www.w3.org/2000/svg" xmlns:xlink="http://www.w3.org/1999/xlink" x="0px" y="0px" width="24px"
	 height="24px" viewBox="0 0 24 24" enable-background="new 0 0 24 24" xml:space="preserve">
<g id="Filled_Icon">
	<g>
		<path d="M5.095,14.078l-0.637-4C4.415,9.806,4.601,9.55,4.874,9.507C5.14,9.461,5.402,9.648,5.446,9.922l0.306,1.921
			c0.137-0.407,0.812-0.406,0.948,0.001l0.306-1.922C7.049,9.648,7.31,9.461,7.578,9.507c0.273,0.043,0.459,0.299,0.416,0.571
			l-0.637,4c-0.084,0.521-0.812,0.572-0.971,0.074l-0.161-0.505l-0.16,0.505C5.906,14.65,5.179,14.598,5.095,14.078z"/>
		<path d="M11.117,14.078l-0.637-4c-0.043-0.272,0.142-0.528,0.416-0.571c0.269-0.046,0.529,0.142,0.572,0.415l0.306,1.924
			c0.067-0.204,0.26-0.344,0.476-0.344l0,0c0.215,0,0.405,0.138,0.474,0.341l0.308-1.922c0.044-0.273,0.304-0.46,0.573-0.414
			c0.273,0.043,0.458,0.3,0.415,0.572l-0.641,4c-0.082,0.504-0.806,0.589-0.971,0.072l-0.159-0.503l-0.161,0.504
			C11.927,14.651,11.201,14.598,11.117,14.078z"/>
		<path d="M18.435,14.152l-0.16-0.505l-0.161,0.505c-0.157,0.495-0.887,0.447-0.971-0.074l-0.637-4
			c-0.043-0.272,0.142-0.528,0.416-0.571c0.268-0.046,0.529,0.142,0.572,0.415l0.306,1.922c0.068-0.203,0.259-0.342,0.475-0.342l0,0
			c0.215,0,0.405,0.137,0.474,0.341l0.306-1.921c0.043-0.273,0.302-0.461,0.572-0.415c0.273,0.043,0.459,0.299,0.416,0.571l-0.637,4
			C19.321,14.596,18.595,14.655,18.435,14.152z"/>
		<g>
			<path d="M9.727,18c0.74,1.559,1.749,3.104,2.273,3.73c0.524-0.627,1.533-2.172,2.273-3.73C12.628,18,11.372,18,9.727,18z"/>
			<path d="M12.685,22.473c3.19-0.22,6.098-1.9,7.906-4.473h-5.22C14.557,19.825,13.414,21.609,12.685,22.473z"/>
			<path d="M20.635,6c-1.802-2.582-4.726-4.265-7.95-4.474c0.857,1,2.01,2.231,2.998,4.474H20.635z"/>
			<path d="M23.5,8h-1.792c-0.141-0.34-0.283-0.68-0.455-1h-5.177c0.116,0.329,0.207,0.664,0.299,1H15.33
				c-0.097-0.335-0.186-0.672-0.312-1H8.982C8.856,7.328,8.767,7.665,8.67,8H7.625c0.092-0.336,0.183-0.671,0.299-1H2.747
				C2.575,7.32,2.433,7.66,2.292,8H0.5C0.224,8,0,8.224,0,8.5v7C0,15.776,0.224,16,0.5,16h1.823c0.143,0.341,0.287,0.68,0.462,1
				h5.424c-0.126-0.333-0.235-0.666-0.343-1h1.058c0.108,0.334,0.212,0.667,0.346,1h5.461c0.134-0.333,0.237-0.666,0.346-1h1.058
				c-0.107,0.334-0.217,0.667-0.343,1h5.424c0.175-0.32,0.319-0.659,0.462-1H23.5c0.276,0,0.5-0.224,0.5-0.5v-7
				C24,8.224,23.776,8,23.5,8z M23,15H12H1V9c7.961,0,14.039,0,22,0V15z"/>
			<path d="M3.409,18c1.809,2.572,4.716,4.253,7.906,4.473C10.586,21.609,9.443,19.825,8.629,18H3.409z"/>
			<path d="M14.584,6C13.735,4.237,12.862,3.27,12,2.27c-0.862,1-1.735,1.968-2.584,3.73C11.286,6,12.714,6,14.584,6z"/>
			<path d="M11.315,1.526C8.091,1.735,5.167,3.418,3.365,6h4.952C9.306,3.758,10.458,2.526,11.315,1.526z"/>
		</g>
	</g>
</g>
<g id="Invisible_Shape">
	<rect fill="none" width="24" height="24"/>
</g>
</svg>
