<?xml version="1.0" encoding="utf-8"?>
<!-- Generator: Adobe Illustrator 19.2.1, SVG Export Plug-In . SVG Version: 6.00 Build 0)  -->
<svg version="1.1" xmlns="http://www.w3.org/2000/svg" xmlns:xlink="http://www.w3.org/1999/xlink" x="0px" y="0px" width="24px"
	 height="24px" viewBox="0 0 24 24" enable-background="new 0 0 24 24" xml:space="preserve">
<g id="Filled_Icons_1_">
	<g id="Filled_Icons">
		<g>
			<path d="M17,0H0.5C0.224,0,0,0.224,0,0.5v20C0,22.431,1.57,24,3.5,24h14.94C17.595,23.139,17,21.828,17,20.5V0z M3,6.5
				C3,6.224,3.224,6,3.5,6h5C8.776,6,9,6.224,9,6.5v6C9,12.776,8.776,13,8.5,13h-5C3.224,13,3,12.776,3,12.5V6.5z M14.5,19h-11
				C3.224,19,3,18.776,3,18.5C3,18.224,3.224,18,3.5,18h11c0.276,0,0.5,0.224,0.5,0.5C15,18.776,14.776,19,14.5,19z M14.5,17h-11
				C3.224,17,3,16.776,3,16.5C3,16.224,3.224,16,3.5,16h11c0.276,0,0.5,0.224,0.5,0.5C15,16.776,14.776,17,14.5,17z M14.5,15h-11
				C3.224,15,3,14.776,3,14.5C3,14.224,3.224,14,3.5,14h11c0.276,0,0.5,0.224,0.5,0.5C15,14.776,14.776,15,14.5,15z M14.5,13h-4
				c-0.276,0-0.5-0.224-0.5-0.5c0-0.276,0.224-0.5,0.5-0.5h4c0.276,0,0.5,0.224,0.5,0.5C15,12.776,14.776,13,14.5,13z M14.5,11h-4
				c-0.276,0-0.5-0.224-0.5-0.5c0-0.276,0.224-0.5,0.5-0.5h4c0.276,0,0.5,0.224,0.5,0.5C15,10.776,14.776,11,14.5,11z M14.5,9h-3
				C11.224,9,11,8.776,11,8.5C11,8.224,11.224,8,11.5,8h3C14.776,8,15,8.224,15,8.5C15,8.776,14.776,9,14.5,9z M14.5,4h-11
				C3.224,4,3,3.776,3,3.5C3,3.224,3.224,3,3.5,3h11C14.776,3,15,3.224,15,3.5C15,3.776,14.776,4,14.5,4z"/>
			<path d="M23.5,3H20V1.5C20,1.224,19.776,1,19.5,1H18v19.5c0,1.701,1.285,3.5,2.5,3.5c1.93,0,3.5-1.569,3.5-3.5v-17
				C24,3.224,23.776,3,23.5,3z M21,20.5c0,0.276-0.225,0.5-0.5,0.5c-0.276,0-0.5-0.224-0.5-0.5V6h1V20.5z"/>
		</g>
	</g>
	<g id="New_icons">
	</g>
</g>
<g id="Invisible_Shape">
	<rect fill="none" width="24" height="24"/>
</g>
</svg>
