<?xml version="1.0" encoding="utf-8"?>
<!-- Generator: Adobe Illustrator 19.2.1, SVG Export Plug-In . SVG Version: 6.00 Build 0)  -->
<svg version="1.1" xmlns="http://www.w3.org/2000/svg" xmlns:xlink="http://www.w3.org/1999/xlink" x="0px" y="0px" width="24px"
	 height="24px" viewBox="0 0 24 24" enable-background="new 0 0 24 24" xml:space="preserve">
<g id="Filled_Icons_1_">
	<g id="Filled_Icons">
		<g>
			<path d="M2,1.5v21C2,23.327,2.672,24,3.5,24H5V0H3.5C2.672,0,2,0.673,2,1.5z"/>
			<path d="M20.5,0H6v24h14.5c0.276,0,0.5-0.224,0.5-0.5v-23C21,0.224,20.776,0,20.5,0z M17,8.5C17,8.776,16.776,9,16.5,9h-6
				C10.224,9,10,8.776,10,8.5v-3C10,5.224,10.224,5,10.5,5h6C16.776,5,17,5.224,17,5.5V8.5z"/>
		</g>
	</g>
	<g id="New_icons">
	</g>
</g>
<g id="Invisible_Shape">
	<rect fill="none" width="24" height="24"/>
</g>
</svg>
