<?xml version="1.0" encoding="utf-8"?>
<!-- Generator: Adobe Illustrator 19.2.1, SVG Export Plug-In . SVG Version: 6.00 Build 0)  -->
<svg version="1.1" xmlns="http://www.w3.org/2000/svg" xmlns:xlink="http://www.w3.org/1999/xlink" x="0px" y="0px" width="24px"
	 height="24px" viewBox="0 0 24 24" enable-background="new 0 0 24 24" xml:space="preserve">
<g id="Filled_Icons_1_">
	<g id="Filled_Icons">
		<path d="M23.596,4.389c-0.195-0.195-0.512-0.195-0.707,0l-2.475,2.476l-3.536-3.536l2.476-2.475c0.195-0.195,0.195-0.512,0-0.707
			c-0.195-0.195-0.512-0.195-0.707,0l-2.476,2.475l-1.768-1.768c-0.195-0.195-0.512-0.195-0.707,0L9.808,4.742
			C7.924,6.626,7.662,9.564,8.954,11.96l-1.976,1.976c-0.194,0.192-0.196,0.51,0,0.706l0.707,0.707l-4.242,4.243
			c-0.975,0.975-0.975,2.56,0,3.535c0.975,0.976,2.561,0.975,3.535,0l3.183-3.182c0.377-0.378,1.036-0.378,1.414,0
			c0.39,0.39,0.39,1.024,0,1.414l-1.683,1.683c-0.195,0.194-0.195,0.512,0,0.707c0.197,0.195,0.51,0.195,0.707,0l1.683-1.684
			c0.779-0.779,0.779-2.047,0-2.827c-0.785-0.785-2.05-0.78-2.828,0L6.272,22.42c-0.585,0.585-1.536,0.585-2.121,0
			c-0.585-0.585-0.585-1.536,0-2.121l4.242-4.243l0.708,0.708c0.195,0.195,0.512,0.195,0.707,0l1.977-1.977
			c2.376,1.279,5.314,1.052,7.216-0.852l3.889-3.889c0.195-0.195,0.195-0.512,0-0.707l-1.768-1.768l2.475-2.476
			C23.791,4.9,23.791,4.584,23.596,4.389z M15.11,11.46c-0.779,0.781-2.045,0.784-2.828,0c-0.785-0.785-0.78-2.05,0-2.828
			c0.755-0.756,2.073-0.756,2.828,0C15.89,9.41,15.896,10.675,15.11,11.46z M20.06,10.046c-0.195,0.195-0.512,0.195-0.707,0
			l-5.657-5.657c-0.195-0.195-0.195-0.513,0-0.707c0.195-0.195,0.512-0.195,0.707,0l5.657,5.657
			C20.256,9.534,20.256,9.851,20.06,10.046z"/>
	</g>
	<g id="New_icons">
	</g>
</g>
<g id="Invisible_Shape">
	<rect fill="none" width="24" height="24"/>
</g>
</svg>
