<?xml version="1.0" encoding="utf-8"?>
<!-- Generator: Adobe Illustrator 16.0.4, SVG Export Plug-In . SVG Version: 6.00 Build 0)  -->
<!DOCTYPE svg PUBLIC "-//W3C//DTD SVG 1.1//EN" "http://www.w3.org/Graphics/SVG/1.1/DTD/svg11.dtd">
<svg version="1.1" xmlns="http://www.w3.org/2000/svg" xmlns:xlink="http://www.w3.org/1999/xlink" x="0px" y="0px" width="300px"
	 height="44px" viewBox="0 0 300 44" enable-background="new 0 0 300 44" xml:space="preserve">
<g id="Layer_1" display="none">
	<rect x="-91.333" y="-130.5" display="inline" fill="#8C1515" stroke="#000000" stroke-miterlimit="10" width="564" height="433"/>
</g>
<g id="Search" display="none">
	<g display="inline">
		<path fill="#FFFFFF" d="M2.478,12.126c0-3.007,1.152-5.479,3.457-7.412c2.304-1.934,4.98-2.9,8.027-2.9
			c0.859,0,1.67,0.049,2.432,0.146c0.762,0.098,1.386,0.205,1.875,0.322c0.488,0.117,1.191,0.303,2.109,0.557
			c0.917,0.254,1.729,0.459,2.432,0.615c0.469,2.071,0.703,4.863,0.703,8.379c0,0.274-0.196,0.41-0.586,0.41
			c-0.938,0-1.446-0.195-1.523-0.586c-0.196-1.718-1.025-3.388-2.49-5.01c-1.465-1.621-3.252-2.432-5.361-2.432
			c-2.344,0-3.995,0.586-4.951,1.758C7.643,7.146,7.165,8.592,7.165,10.31c0,0.743,0.136,1.456,0.41,2.139
			c0.273,0.684,0.546,1.25,0.82,1.699c0.273,0.45,0.771,0.967,1.494,1.553c0.722,0.586,1.25,0.996,1.582,1.23
			c0.332,0.234,0.996,0.665,1.992,1.289c0.996,0.625,1.63,1.016,1.904,1.172c0.195,0.117,0.879,0.538,2.051,1.26
			c1.172,0.723,1.972,1.23,2.402,1.523c0.429,0.293,1.103,0.82,2.021,1.582c0.917,0.762,1.582,1.436,1.992,2.021
			s0.8,1.318,1.172,2.197c0.371,0.879,0.557,1.787,0.557,2.725c0,3.125-1.221,5.694-3.662,7.705
			c-2.442,2.012-5.303,3.018-8.584,3.018c-0.938,0-1.934-0.069-2.988-0.205c-1.055-0.137-1.934-0.274-2.637-0.41
			S6.1,40.477,5.026,40.222c-1.075-0.253-1.827-0.419-2.256-0.498c-0.977-4.805-1.465-7.91-1.465-9.316
			c0-0.234,0.312-0.352,0.938-0.352c0.703,0,1.191,0.176,1.465,0.527c1.328,5.625,4.57,8.438,9.727,8.438
			c1.953,0,3.613-0.586,4.98-1.758c1.367-1.172,2.051-2.832,2.051-4.98c0-0.781-0.117-1.503-0.352-2.168
			c-0.234-0.664-0.479-1.21-0.732-1.641c-0.254-0.429-0.703-0.888-1.348-1.377c-0.645-0.488-1.143-0.85-1.494-1.084
			s-0.996-0.605-1.934-1.113c-0.938-0.507-1.582-0.859-1.934-1.055c-1.133-0.664-1.924-1.132-2.373-1.406
			c-0.45-0.273-1.192-0.751-2.227-1.436c-1.036-0.683-1.787-1.289-2.256-1.816s-1.016-1.172-1.641-1.934
			c-0.625-0.762-1.065-1.572-1.318-2.432C2.604,13.963,2.478,13.064,2.478,12.126z"/>
		<path fill="#FFFFFF" d="M41.442,15.291c1.796,0,3.378,0.342,4.746,1.025c1.367,0.684,2.412,1.563,3.135,2.637
			c0.722,1.075,1.25,2.168,1.582,3.281c0.332,1.113,0.498,2.217,0.498,3.311c0,0.782-0.117,1.26-0.352,1.436
			s-0.684,0.264-1.348,0.264H34.938c-0.313,0-0.469,0.098-0.469,0.293c0,2.461,0.742,4.727,2.227,6.797
			c1.484,2.071,3.633,3.105,6.445,3.105c0.82,0,1.601-0.078,2.344-0.234c0.742-0.156,1.377-0.341,1.904-0.557
			c0.527-0.214,0.976-0.429,1.348-0.645c0.371-0.214,0.693-0.419,0.967-0.615l0.41-0.293c0.234,0,0.352,0.254,0.352,0.762
			c0,0.313-0.117,0.665-0.352,1.055c-0.782,1.094-1.934,2.08-3.457,2.959s-3.184,1.318-4.98,1.318c-3.243,0-6.026-1.22-8.35-3.662
			c-2.325-2.441-3.486-5.42-3.486-8.936c0-4.102,1.103-7.343,3.311-9.727C35.358,16.482,38.122,15.291,41.442,15.291z
			 M40.856,17.458c-2.032,0-3.584,0.87-4.658,2.607c-1.075,1.739-1.611,3.174-1.611,4.307c0,0.274,0.117,0.41,0.352,0.41h11.426
			c0.195,0,0.293-0.195,0.293-0.586c0-1.25-0.527-2.685-1.582-4.307C44.021,18.27,42.614,17.458,40.856,17.458z"/>
		<path fill="#FFFFFF" d="M66.579,15.291c2.148,0,3.691,0.518,4.629,1.553c0.938,1.036,1.406,2.706,1.406,5.01v13.535
			c0,0.82,0.214,1.504,0.645,2.051c0.429,0.547,1.015,0.82,1.758,0.82c0.546,0,1.23-0.273,2.051-0.82
			c0.156,0,0.234,0.157,0.234,0.469c0,0.508-0.098,0.918-0.293,1.23c-1.602,1.368-2.969,2.051-4.102,2.051
			c-0.899,0-1.758-0.371-2.578-1.113c-0.82-0.742-1.387-1.523-1.699-2.344c-0.04,0-0.186,0.127-0.439,0.381
			c-0.254,0.254-0.596,0.547-1.025,0.879c-0.43,0.333-0.928,0.674-1.494,1.025c-0.567,0.352-1.23,0.645-1.992,0.879
			s-1.534,0.352-2.314,0.352c-1.797,0-3.281-0.478-4.453-1.436c-1.172-0.957-1.758-2.392-1.758-4.307
			c0-0.859,0.214-1.67,0.645-2.432c0.429-0.762,0.938-1.386,1.523-1.875c0.586-0.488,1.386-0.986,2.402-1.494
			c1.015-0.507,1.884-0.888,2.607-1.143c0.722-0.253,1.67-0.576,2.842-0.967c1.172-0.39,1.992-0.683,2.461-0.879
			c0.352-0.117,0.527-0.41,0.527-0.879v-4.395c0-1.25-0.391-2.216-1.172-2.9c-0.782-0.683-1.719-1.025-2.812-1.025
			c-1.172,0-2.149,0.401-2.93,1.201c-0.782,0.801-1.172,1.846-1.172,3.135c0,1.368-0.801,2.051-2.402,2.051
			c-1.094,0-1.856-0.371-2.285-1.113c0-1.679,1.23-3.349,3.691-5.01C61.54,16.121,64.04,15.291,66.579,15.291z M61.071,37.058
			c0.664,0.567,1.523,0.85,2.578,0.85s2.07-0.322,3.047-0.967c0.976-0.645,1.465-1.298,1.465-1.963v-6.035
			c-0.313,0.157-1.075,0.43-2.285,0.82c-1.211,0.391-2.159,0.732-2.842,1.025c-0.684,0.293-1.348,0.782-1.992,1.465
			c-0.645,0.684-0.967,1.475-0.967,2.373C60.075,35.681,60.407,36.492,61.071,37.058z"/>
		<path fill="#FFFFFF" d="M94.821,15.232c2.304,0,3.828,0.567,4.57,1.699c0,1.368-0.215,2.364-0.645,2.988
			c-0.43,0.625-0.958,0.938-1.582,0.938c-0.703,0-1.348-0.332-1.934-0.996c-0.586-0.664-1.387-0.996-2.402-0.996
			c-1.211,0-2.266,0.567-3.164,1.699c-0.899,1.133-1.348,2.325-1.348,3.574v8.789c0,2.266,0.156,4.004,0.469,5.215
			c0.078,0.274,0.595,0.538,1.553,0.791c0.957,0.254,1.63,0.381,2.021,0.381c0.117,0,0.195,0.234,0.234,0.703
			c0.039,0.469,0.019,0.801-0.059,0.996c-3.907-0.195-6.016-0.293-6.328-0.293c-0.234,0-2.364,0.098-6.387,0.293
			c-0.157-0.157-0.234-0.478-0.234-0.967c0-0.488,0.078-0.732,0.234-0.732c0.469,0,1.162-0.126,2.08-0.381
			c0.917-0.253,1.416-0.517,1.494-0.791c0.273-1.132,0.41-2.5,0.41-4.102V22.966c0-1.523-0.274-2.578-0.82-3.164
			c-0.391-0.469-0.87-0.791-1.436-0.967c-0.567-0.176-1.036-0.264-1.406-0.264c-0.372,0-0.557-0.039-0.557-0.117
			c0-0.938,0.117-1.425,0.352-1.465c4.14-0.625,6.835-1.132,8.086-1.523c0.039,0,0.136-0.019,0.293-0.059
			c0.156,0,0.253,0.167,0.293,0.498c0.039,0.333,0.039,0.577,0,0.732l-0.352,2.93c0.703-1.055,1.67-2.041,2.9-2.959
			C92.39,15.691,93.61,15.232,94.821,15.232z"/>
		<path fill="#FFFFFF" d="M113.454,15.291c4.296,0,7.266,0.996,8.906,2.988c0,2.618-0.723,3.926-2.168,3.926
			c-0.665,0-1.172-0.146-1.523-0.439s-0.801-0.83-1.348-1.611c-1.211-1.796-2.657-2.695-4.336-2.695
			c-1.602,0-3.057,0.762-4.365,2.285c-1.309,1.523-1.963,3.79-1.963,6.797c0,3.125,0.771,5.723,2.314,7.793
			c1.542,2.071,3.681,3.105,6.416,3.105c0.82,0,1.601-0.078,2.344-0.234c0.742-0.156,1.377-0.341,1.904-0.557
			c0.527-0.214,0.976-0.429,1.348-0.645c0.371-0.214,0.693-0.419,0.967-0.615l0.41-0.293c0.234,0,0.352,0.254,0.352,0.762
			c0,0.313-0.117,0.665-0.352,1.055c-0.782,1.094-1.934,2.08-3.457,2.959s-3.184,1.318-4.98,1.318c-3.243,0-6.026-1.22-8.35-3.662
			c-2.325-2.441-3.486-5.42-3.486-8.936c0-3.593,0.976-6.709,2.93-9.346C106.969,16.609,109.782,15.291,113.454,15.291z"/>
		<path fill="#FFFFFF" d="M141.931,15.173c2.617,0,4.492,0.938,5.625,2.812c1.132,1.875,1.699,4.766,1.699,8.672v6.328
			c0,2.227,0.156,3.946,0.469,5.156c0.078,0.274,0.586,0.538,1.523,0.791c0.938,0.254,1.601,0.381,1.992,0.381
			c0.117,0,0.195,0.234,0.234,0.703c0.039,0.469,0.019,0.801-0.059,0.996c-3.907-0.195-5.997-0.293-6.27-0.293
			c-0.117,0-2.168,0.098-6.152,0.293c-0.157-0.157-0.234-0.478-0.234-0.967c0-0.488,0.078-0.732,0.234-0.732
			c0.469,0,1.123-0.126,1.963-0.381c0.839-0.253,1.298-0.517,1.377-0.791c0.273-1.132,0.41-2.5,0.41-4.102V27.83
			c0-3.593-0.498-6.006-1.494-7.236s-2.53-1.846-4.6-1.846c-1.172,0-2.334,0.459-3.486,1.377c-1.153,0.918-1.729,1.729-1.729,2.432
			v10.371c0,2.266,0.156,4.004,0.469,5.215c0.078,0.274,0.586,0.538,1.523,0.791c0.938,0.254,1.601,0.381,1.992,0.381
			c0.117,0,0.195,0.234,0.234,0.703c0.039,0.469,0.019,0.801-0.059,0.996c-3.907-0.195-5.997-0.293-6.27-0.293
			c-0.234,0-2.364,0.098-6.387,0.293c-0.157-0.157-0.234-0.478-0.234-0.967c0-0.488,0.078-0.732,0.234-0.732
			c0.469,0,1.162-0.126,2.08-0.381c0.917-0.253,1.416-0.517,1.494-0.791c0.273-1.132,0.41-2.48,0.41-4.043V8.669
			c0-1.328-0.117-2.578-0.352-3.75c-0.196-0.625-1.192-0.938-2.988-0.938h-0.527c-0.234,0-0.352-0.214-0.352-0.645
			c0-0.625,0.117-0.938,0.352-0.938c1.172-0.117,2.256-0.273,3.252-0.469c0.996-0.195,1.777-0.39,2.344-0.586
			c0.566-0.195,1.044-0.381,1.436-0.557c0.39-0.176,0.664-0.322,0.82-0.439l0.293-0.176h0.117c0.156,0,0.312,0.108,0.469,0.322
			c0.156,0.215,0.253,0.42,0.293,0.615c-0.43,1.25-0.645,2.95-0.645,5.098v12.832c0,0.157,0.039,0.234,0.117,0.234
			c0.039,0,0.097-0.039,0.176-0.117c0.859-0.938,2.08-1.835,3.662-2.695C138.972,15.604,140.485,15.173,141.931,15.173z"/>
	</g>
</g>
<g id="W" display="none">
	<g display="inline">
		<path fill="#FFFFFF" d="M153.056,2.341c0.195,0,2.246-0.097,6.152-0.293c0.078,0.157,0.107,0.479,0.088,0.967
			c-0.02,0.489-0.088,0.732-0.205,0.732c-0.274,0-0.606,0.029-0.996,0.088c-0.391,0.059-0.811,0.234-1.26,0.527
			c-0.45,0.293-0.674,0.655-0.674,1.084c0,1.172,0.449,2.618,1.348,4.336l12.129,24.023c0.117,0.196,0.273,0.245,0.469,0.146
			c0.195-0.097,0.332-0.244,0.41-0.439l4.863-10.137l-6.152-12.656c-1.133-2.304-2.266-4.179-3.398-5.625
			c-0.313-0.39-0.84-0.712-1.582-0.967c-0.743-0.253-1.348-0.381-1.816-0.381c-0.157,0-0.234-0.293-0.234-0.879
			c0-0.39,0.078-0.664,0.234-0.82c4.492,0.196,6.953,0.293,7.383,0.293c0.156,0,2.187-0.097,6.094-0.293
			c0.078,0.157,0.107,0.479,0.088,0.967c-0.02,0.489-0.088,0.732-0.205,0.732c-0.274,0-0.596,0.029-0.967,0.088
			c-0.372,0.059-0.782,0.225-1.23,0.498c-0.45,0.274-0.674,0.645-0.674,1.113c0,1.016,0.449,2.461,1.348,4.336l3.867,7.91
			l4.102-8.613c0.546-1.21,0.82-2.344,0.82-3.398c0-0.664-0.42-1.152-1.26-1.465c-0.84-0.312-1.573-0.469-2.197-0.469
			c-0.157,0-0.234-0.244-0.234-0.732c0-0.488,0.078-0.81,0.234-0.967c3.125,0.196,5.098,0.293,5.918,0.293
			c0.156,0,2.187-0.097,6.094-0.293c0.078,0.157,0.107,0.479,0.088,0.967c-0.02,0.489-0.088,0.732-0.205,0.732
			c-0.391,0-1.065,0.157-2.021,0.469c-0.958,0.313-1.631,0.703-2.021,1.172c-0.703,0.86-1.836,2.871-3.398,6.035l-4.512,9.258
			l6.387,13.125c0.234,0.43,0.469,0.333,0.703-0.293l10.488-24.082c0.664-1.601,0.996-2.832,0.996-3.691
			c0-0.664-0.401-1.162-1.201-1.494c-0.801-0.332-1.514-0.498-2.139-0.498c-0.157,0-0.234-0.244-0.234-0.732
			c0-0.488,0.078-0.81,0.234-0.967c3.125,0.196,5.117,0.293,5.977,0.293c0.898,0,1.641-0.019,2.227-0.059
			c0.586-0.039,1.191-0.078,1.816-0.117c0.625-0.039,1.21-0.078,1.758-0.117c0.078,0.234,0.117,0.527,0.117,0.879
			c0,0.547-0.079,0.82-0.234,0.82c-0.391,0-1.016,0.146-1.875,0.439c-0.86,0.293-1.504,0.694-1.934,1.201
			c-1.133,1.329-2.266,3.301-3.398,5.918l-12.422,28.125c-0.586,1.25-1.348,1.875-2.285,1.875c-0.234,0-0.41-0.098-0.527-0.293
			l-7.148-14.648l-6.328,13.066c-0.586,1.25-1.348,1.875-2.285,1.875c-0.234,0-0.41-0.098-0.527-0.293L152.47,10.72
			c-1.133-2.304-2.266-4.179-3.398-5.625c-0.313-0.39-0.84-0.712-1.582-0.967c-0.743-0.253-1.348-0.381-1.816-0.381
			c-0.157,0-0.234-0.253-0.234-0.762c0-0.469,0.078-0.781,0.234-0.938C150.165,2.244,152.625,2.341,153.056,2.341z"/>
	</g>
</g>
<g id="orks" display="none">
	<g display="inline">
		<path fill="#FFFFFF" d="M213.056,15.232c3.516,0,6.523,1.27,9.023,3.809c2.499,2.54,3.75,5.586,3.75,9.141
			c0,3.594-1.222,6.67-3.662,9.229c-2.441,2.559-5.44,3.838-8.994,3.838c-3.555,0-6.583-1.279-9.082-3.838
			c-2.5-2.558-3.75-5.634-3.75-9.229c0-3.633,1.21-6.699,3.633-9.199C206.395,16.482,209.423,15.232,213.056,15.232z
			 M212.411,17.517c-2.071,0-3.76,0.948-5.068,2.842c-1.309,1.895-1.963,4.209-1.963,6.943c0,3.204,0.83,5.947,2.49,8.232
			c1.66,2.285,3.604,3.428,5.83,3.428c2.07,0,3.77-0.976,5.098-2.93c1.327-1.953,1.992-4.296,1.992-7.031
			c0-3.164-0.841-5.869-2.52-8.115C216.591,18.641,214.638,17.517,212.411,17.517z"/>
		<path fill="#FFFFFF" d="M245.224,15.232c2.305,0,3.828,0.567,4.57,1.699c0,1.368-0.215,2.364-0.645,2.988
			c-0.431,0.625-0.958,0.938-1.582,0.938c-0.703,0-1.348-0.332-1.934-0.996c-0.586-0.664-1.387-0.996-2.402-0.996
			c-1.211,0-2.266,0.567-3.164,1.699c-0.899,1.133-1.348,2.325-1.348,3.574v8.789c0,2.266,0.155,4.004,0.469,5.215
			c0.078,0.274,0.595,0.538,1.553,0.791c0.957,0.254,1.631,0.381,2.021,0.381c0.117,0,0.195,0.234,0.234,0.703
			c0.038,0.469,0.02,0.801-0.059,0.996c-3.906-0.195-6.016-0.293-6.328-0.293c-0.234,0-2.364,0.098-6.387,0.293
			c-0.156-0.157-0.234-0.478-0.234-0.967c0-0.488,0.078-0.732,0.234-0.732c0.469,0,1.162-0.126,2.08-0.381
			c0.917-0.253,1.415-0.517,1.494-0.791c0.272-1.132,0.41-2.5,0.41-4.102V22.966c0-1.523-0.273-2.578-0.82-3.164
			c-0.391-0.469-0.87-0.791-1.436-0.967c-0.566-0.176-1.035-0.264-1.406-0.264c-0.372,0-0.557-0.039-0.557-0.117
			c0-0.938,0.117-1.425,0.352-1.465c4.14-0.625,6.835-1.132,8.086-1.523c0.038,0,0.137-0.019,0.293-0.059
			c0.155,0,0.254,0.167,0.293,0.498c0.038,0.333,0.038,0.577,0,0.732l-0.352,2.93c0.703-1.055,1.67-2.041,2.9-2.959
			C242.792,15.691,244.013,15.232,245.224,15.232z"/>
		<path fill="#FFFFFF" d="M272.997,19.275c-0.665,0.391-1.934,1.318-3.809,2.783s-3.496,2.9-4.863,4.307
			c1.133,1.211,2.52,2.745,4.16,4.6c1.641,1.856,2.988,3.36,4.043,4.512c1.055,1.153,1.777,1.904,2.168,2.256
			c0.664,0.547,1.503,0.967,2.52,1.26c1.016,0.293,1.737,0.439,2.168,0.439c0.155,0,0.234,0.313,0.234,0.938
			c0,0.352-0.021,0.566-0.059,0.645c-3.906-0.195-6.035-0.293-6.387-0.293c-0.079,0-2.109,0.098-6.094,0.293
			c-0.156-0.157-0.234-0.458-0.234-0.908c0-0.449,0.078-0.674,0.234-0.674c0.39,0,0.84-0.078,1.348-0.234
			c0.507-0.156,0.762-0.332,0.762-0.527c0-0.078-0.021-0.136-0.059-0.176l-8.555-9.258l-0.703,0.176v3.516
			c0.078,2.578,0.234,4.317,0.469,5.215c0.078,0.274,0.586,0.538,1.523,0.791c0.938,0.254,1.602,0.381,1.992,0.381
			c0.117,0,0.195,0.234,0.234,0.703c0.038,0.469,0.02,0.801-0.059,0.996c-3.906-0.195-5.997-0.293-6.27-0.293
			c-0.234,0-2.364,0.098-6.387,0.293c-0.156-0.157-0.234-0.478-0.234-0.967c0-0.488,0.078-0.732,0.234-0.732
			c0.469,0,1.162-0.126,2.08-0.381c0.917-0.253,1.415-0.517,1.494-0.791c0.272-1.132,0.41-2.5,0.41-4.102V8.669
			c0-1.328-0.117-2.578-0.352-3.75c-0.196-0.625-1.192-0.938-2.988-0.938h-0.527c-0.234,0-0.352-0.214-0.352-0.645
			c0-0.625,0.117-0.938,0.352-0.938c1.172-0.117,2.256-0.273,3.252-0.469c0.996-0.195,1.777-0.39,2.344-0.586
			c0.565-0.195,1.045-0.381,1.436-0.557c0.39-0.176,0.664-0.322,0.82-0.439l0.293-0.176h0.117c0.155,0,0.312,0.108,0.469,0.322
			c0.155,0.215,0.254,0.42,0.293,0.615c-0.431,1.25-0.645,2.95-0.645,5.098v20.508c0.82-0.195,1.309-0.371,1.465-0.527
			c0.858-0.742,1.758-1.503,2.695-2.285c0.938-0.781,1.641-1.367,2.109-1.758c0.469-0.39,0.917-0.781,1.348-1.172
			c0.43-0.39,0.723-0.703,0.879-0.938c0.155-0.234,0.234-0.469,0.234-0.703c0-0.469-0.431-0.742-1.289-0.82
			c-0.859-0.078-1.31-0.156-1.348-0.234c-0.273-0.781-0.255-1.23,0.059-1.348h4.629c0.586,0,1.201-0.019,1.846-0.059
			c0.645-0.039,1.406-0.078,2.285-0.117c0.879-0.039,1.649-0.078,2.314-0.117c0.155,0.079,0.243,0.254,0.264,0.527
			c0.02,0.274-0.01,0.527-0.088,0.762c-0.079,0.234-0.156,0.352-0.234,0.352c-0.508,0-1.23,0.117-2.168,0.352
			S273.31,19.08,272.997,19.275z"/>
		<path fill="#FFFFFF" d="M290.575,15.232c0.858,0,1.942,0.108,3.252,0.322c1.309,0.215,2.217,0.362,2.725,0.439
			c0.39,1.797,0.624,3.79,0.703,5.977c0,0.196-0.255,0.293-0.762,0.293c-0.548,0-0.841-0.136-0.879-0.41
			c-0.196-1.093-0.753-2.128-1.67-3.105c-0.918-0.976-1.963-1.465-3.135-1.465c-2.812,0-4.219,1.153-4.219,3.457
			c0,0.586,0.078,1.104,0.234,1.553c0.155,0.45,0.459,0.879,0.908,1.289c0.448,0.41,0.791,0.703,1.025,0.879
			s0.752,0.489,1.553,0.938c0.8,0.45,1.298,0.732,1.494,0.85c0.155,0.079,0.615,0.342,1.377,0.791
			c0.762,0.45,1.298,0.772,1.611,0.967c0.312,0.196,0.771,0.527,1.377,0.996c0.605,0.469,1.045,0.889,1.318,1.26
			c0.272,0.372,0.536,0.84,0.791,1.406c0.254,0.567,0.381,1.143,0.381,1.729c0,2.305-0.899,4.229-2.695,5.771
			c-1.797,1.543-3.906,2.314-6.328,2.314c-0.82,0-1.573-0.049-2.256-0.146c-0.684-0.098-1.494-0.264-2.432-0.498
			s-1.661-0.39-2.168-0.469c-0.234-0.625-0.46-1.601-0.674-2.93c-0.215-1.328-0.322-2.382-0.322-3.164
			c0.312-0.234,0.547-0.352,0.703-0.352c0.586,0,0.898,0.117,0.938,0.352c0.234,1.172,0.967,2.314,2.197,3.428
			s2.568,1.67,4.014,1.67c1.25,0,2.275-0.341,3.076-1.025c0.8-0.683,1.201-1.67,1.201-2.959c0-0.664-0.127-1.279-0.381-1.846
			c-0.255-0.566-0.665-1.074-1.23-1.523c-0.566-0.449-1.094-0.82-1.582-1.113c-0.489-0.293-1.182-0.674-2.08-1.143
			c-0.899-0.469-1.562-0.839-1.992-1.113c-3.047-1.758-4.57-3.847-4.57-6.27c0-2.109,0.85-3.828,2.549-5.156
			C286.327,15.896,288.31,15.232,290.575,15.232z"/>
	</g>
</g>
<g id="Search_copy">
	<g>
		<path fill="#FFFFFF" d="M2.478,12.538c0-3.007,1.152-5.479,3.457-7.412c2.304-1.934,4.98-2.9,8.027-2.9
			c0.859,0,1.67,0.049,2.432,0.146c0.762,0.098,1.386,0.205,1.875,0.322c0.488,0.117,1.191,0.303,2.109,0.557
			c0.917,0.254,1.729,0.459,2.432,0.615c0.469,2.071,0.703,4.863,0.703,8.379c0,0.274-0.196,0.41-0.586,0.41
			c-0.938,0-1.446-0.195-1.523-0.586c-0.196-1.718-1.025-3.388-2.49-5.01c-1.465-1.621-3.252-2.432-5.361-2.432
			c-2.344,0-3.995,0.586-4.951,1.758c-0.958,1.172-1.436,2.618-1.436,4.336c0,0.743,0.136,1.456,0.41,2.139
			c0.273,0.684,0.546,1.25,0.82,1.699c0.273,0.45,0.771,0.967,1.494,1.553c0.722,0.586,1.25,0.996,1.582,1.23
			c0.332,0.234,0.996,0.665,1.992,1.289c0.996,0.625,1.63,1.016,1.904,1.172c0.195,0.117,0.879,0.538,2.051,1.26
			c1.172,0.723,1.972,1.23,2.402,1.523c0.429,0.293,1.103,0.82,2.021,1.582c0.917,0.762,1.582,1.436,1.992,2.021
			s0.8,1.318,1.172,2.197c0.371,0.879,0.557,1.787,0.557,2.725c0,3.125-1.221,5.694-3.662,7.705
			c-2.442,2.012-5.303,3.018-8.584,3.018c-0.938,0-1.934-0.069-2.988-0.205c-1.055-0.137-1.934-0.274-2.637-0.41
			S6.1,40.888,5.026,40.634C3.952,40.38,3.2,40.214,2.771,40.136c-0.977-4.805-1.465-7.91-1.465-9.316
			c0-0.234,0.312-0.352,0.938-0.352c0.703,0,1.191,0.176,1.465,0.527c1.328,5.625,4.57,8.438,9.727,8.438
			c1.953,0,3.613-0.586,4.98-1.758c1.367-1.172,2.051-2.832,2.051-4.98c0-0.781-0.117-1.503-0.352-2.168
			c-0.234-0.664-0.479-1.21-0.732-1.641c-0.254-0.429-0.703-0.888-1.348-1.377c-0.645-0.488-1.143-0.85-1.494-1.084
			s-0.996-0.605-1.934-1.113c-0.938-0.507-1.582-0.859-1.934-1.055c-1.133-0.664-1.924-1.132-2.373-1.406
			c-0.45-0.273-1.192-0.751-2.227-1.436c-1.036-0.683-1.787-1.289-2.256-1.816s-1.016-1.172-1.641-1.934
			c-0.625-0.762-1.065-1.572-1.318-2.432C2.604,14.375,2.478,13.476,2.478,12.538z"/>
		<path fill="#FFFFFF" d="M41.442,15.702c1.796,0,3.378,0.342,4.746,1.025c1.367,0.684,2.412,1.563,3.135,2.637
			c0.722,1.075,1.25,2.168,1.582,3.281c0.332,1.113,0.498,2.217,0.498,3.311c0,0.782-0.117,1.26-0.352,1.436
			s-0.684,0.264-1.348,0.264H34.938c-0.313,0-0.469,0.098-0.469,0.293c0,2.461,0.742,4.727,2.227,6.797
			c1.484,2.071,3.633,3.105,6.445,3.105c0.82,0,1.601-0.078,2.344-0.234c0.742-0.156,1.377-0.341,1.904-0.557
			c0.527-0.214,0.976-0.429,1.348-0.645c0.371-0.214,0.693-0.419,0.967-0.615l0.41-0.293c0.234,0,0.352,0.254,0.352,0.762
			c0,0.313-0.117,0.665-0.352,1.055c-0.782,1.094-1.934,2.08-3.457,2.959s-3.184,1.318-4.98,1.318c-3.243,0-6.026-1.22-8.35-3.662
			c-2.325-2.441-3.486-5.42-3.486-8.936c0-4.102,1.103-7.343,3.311-9.727C35.358,16.894,38.122,15.702,41.442,15.702z M40.856,17.87
			c-2.032,0-3.584,0.87-4.658,2.607c-1.075,1.739-1.611,3.174-1.611,4.307c0,0.274,0.117,0.41,0.352,0.41h11.426
			c0.195,0,0.293-0.195,0.293-0.586c0-1.25-0.527-2.685-1.582-4.307C44.021,18.681,42.614,17.87,40.856,17.87z"/>
		<path fill="#FFFFFF" d="M66.579,15.702c2.148,0,3.691,0.518,4.629,1.553c0.938,1.036,1.406,2.706,1.406,5.01V35.8
			c0,0.82,0.214,1.504,0.645,2.051c0.429,0.547,1.015,0.82,1.758,0.82c0.546,0,1.23-0.273,2.051-0.82
			c0.156,0,0.234,0.157,0.234,0.469c0,0.508-0.098,0.918-0.293,1.23c-1.602,1.368-2.969,2.051-4.102,2.051
			c-0.899,0-1.758-0.371-2.578-1.113c-0.82-0.742-1.387-1.523-1.699-2.344c-0.04,0-0.186,0.127-0.439,0.381
			c-0.254,0.254-0.596,0.547-1.025,0.879c-0.43,0.333-0.928,0.674-1.494,1.025c-0.567,0.352-1.23,0.645-1.992,0.879
			s-1.534,0.352-2.314,0.352c-1.797,0-3.281-0.478-4.453-1.436c-1.172-0.957-1.758-2.392-1.758-4.307
			c0-0.859,0.214-1.67,0.645-2.432c0.429-0.762,0.938-1.386,1.523-1.875c0.586-0.488,1.386-0.986,2.402-1.494
			c1.015-0.507,1.884-0.888,2.607-1.143c0.722-0.253,1.67-0.576,2.842-0.967c1.172-0.39,1.992-0.683,2.461-0.879
			c0.352-0.117,0.527-0.41,0.527-0.879v-4.395c0-1.25-0.391-2.216-1.172-2.9c-0.782-0.683-1.719-1.025-2.812-1.025
			c-1.172,0-2.149,0.401-2.93,1.201c-0.782,0.801-1.172,1.846-1.172,3.135c0,1.368-0.801,2.051-2.402,2.051
			c-1.094,0-1.856-0.371-2.285-1.113c0-1.679,1.23-3.349,3.691-5.01C61.54,16.533,64.04,15.702,66.579,15.702z M61.071,37.47
			c0.664,0.567,1.523,0.85,2.578,0.85s2.07-0.322,3.047-0.967c0.976-0.645,1.465-1.298,1.465-1.963v-6.035
			c-0.313,0.157-1.075,0.43-2.285,0.82c-1.211,0.391-2.159,0.732-2.842,1.025c-0.684,0.293-1.348,0.782-1.992,1.465
			c-0.645,0.684-0.967,1.475-0.967,2.373C60.075,36.093,60.407,36.904,61.071,37.47z"/>
		<path fill="#FFFFFF" d="M94.821,15.644c2.304,0,3.828,0.567,4.57,1.699c0,1.368-0.215,2.364-0.645,2.988
			c-0.43,0.625-0.958,0.938-1.582,0.938c-0.703,0-1.348-0.332-1.934-0.996c-0.586-0.664-1.387-0.996-2.402-0.996
			c-1.211,0-2.266,0.567-3.164,1.699c-0.899,1.133-1.348,2.325-1.348,3.574v8.789c0,2.266,0.156,4.004,0.469,5.215
			c0.078,0.274,0.595,0.538,1.553,0.791c0.957,0.254,1.63,0.381,2.021,0.381c0.117,0,0.195,0.234,0.234,0.703
			c0.039,0.469,0.019,0.801-0.059,0.996c-3.907-0.195-6.016-0.293-6.328-0.293c-0.234,0-2.364,0.098-6.387,0.293
			c-0.157-0.157-0.234-0.478-0.234-0.967c0-0.488,0.078-0.732,0.234-0.732c0.469,0,1.162-0.126,2.08-0.381
			c0.917-0.253,1.416-0.517,1.494-0.791c0.273-1.132,0.41-2.5,0.41-4.102V23.378c0-1.523-0.274-2.578-0.82-3.164
			c-0.391-0.469-0.87-0.791-1.436-0.967c-0.567-0.176-1.036-0.264-1.406-0.264c-0.372,0-0.557-0.039-0.557-0.117
			c0-0.938,0.117-1.425,0.352-1.465c4.14-0.625,6.835-1.132,8.086-1.523c0.039,0,0.136-0.019,0.293-0.059
			c0.156,0,0.253,0.167,0.293,0.498c0.039,0.333,0.039,0.577,0,0.732l-0.352,2.93c0.703-1.055,1.67-2.041,2.9-2.959
			C92.39,16.103,93.61,15.644,94.821,15.644z"/>
		<path fill="#FFFFFF" d="M113.454,15.702c4.296,0,7.266,0.996,8.906,2.988c0,2.618-0.723,3.926-2.168,3.926
			c-0.665,0-1.172-0.146-1.523-0.439s-0.801-0.83-1.348-1.611c-1.211-1.796-2.657-2.695-4.336-2.695
			c-1.602,0-3.057,0.762-4.365,2.285c-1.309,1.523-1.963,3.79-1.963,6.797c0,3.125,0.771,5.723,2.314,7.793
			c1.542,2.071,3.681,3.105,6.416,3.105c0.82,0,1.601-0.078,2.344-0.234c0.742-0.156,1.377-0.341,1.904-0.557
			c0.527-0.214,0.976-0.429,1.348-0.645c0.371-0.214,0.693-0.419,0.967-0.615l0.41-0.293c0.234,0,0.352,0.254,0.352,0.762
			c0,0.313-0.117,0.665-0.352,1.055c-0.782,1.094-1.934,2.08-3.457,2.959s-3.184,1.318-4.98,1.318c-3.243,0-6.026-1.22-8.35-3.662
			c-2.325-2.441-3.486-5.42-3.486-8.936c0-3.593,0.976-6.709,2.93-9.346C106.969,17.021,109.782,15.702,113.454,15.702z"/>
		<path fill="#FFFFFF" d="M141.931,15.585c2.617,0,4.492,0.938,5.625,2.812c1.132,1.875,1.699,4.766,1.699,8.672v6.328
			c0,2.227,0.156,3.946,0.469,5.156c0.078,0.274,0.586,0.538,1.523,0.791c0.938,0.254,1.601,0.381,1.992,0.381
			c0.117,0,0.195,0.234,0.234,0.703c0.039,0.469,0.019,0.801-0.059,0.996c-3.907-0.195-5.997-0.293-6.27-0.293
			c-0.117,0-2.168,0.098-6.152,0.293c-0.157-0.157-0.234-0.478-0.234-0.967c0-0.488,0.078-0.732,0.234-0.732
			c0.469,0,1.123-0.126,1.963-0.381c0.839-0.253,1.298-0.517,1.377-0.791c0.273-1.132,0.41-2.5,0.41-4.102v-6.211
			c0-3.593-0.498-6.006-1.494-7.236s-2.53-1.846-4.6-1.846c-1.172,0-2.334,0.459-3.486,1.377c-1.153,0.918-1.729,1.729-1.729,2.432
			v10.371c0,2.266,0.156,4.004,0.469,5.215c0.078,0.274,0.586,0.538,1.523,0.791c0.938,0.254,1.601,0.381,1.992,0.381
			c0.117,0,0.195,0.234,0.234,0.703c0.039,0.469,0.019,0.801-0.059,0.996c-3.907-0.195-5.997-0.293-6.27-0.293
			c-0.234,0-2.364,0.098-6.387,0.293c-0.157-0.157-0.234-0.478-0.234-0.967c0-0.488,0.078-0.732,0.234-0.732
			c0.469,0,1.162-0.126,2.08-0.381c0.917-0.253,1.416-0.517,1.494-0.791c0.273-1.132,0.41-2.48,0.41-4.043V9.081
			c0-1.328-0.117-2.578-0.352-3.75c-0.196-0.625-1.192-0.938-2.988-0.938h-0.527c-0.234,0-0.352-0.214-0.352-0.645
			c0-0.625,0.117-0.938,0.352-0.938c1.172-0.117,2.256-0.273,3.252-0.469c0.996-0.195,1.777-0.39,2.344-0.586
			c0.566-0.195,1.044-0.381,1.436-0.557c0.39-0.176,0.664-0.322,0.82-0.439l0.293-0.176h0.117c0.156,0,0.312,0.108,0.469,0.322
			c0.156,0.215,0.253,0.42,0.293,0.615c-0.43,1.25-0.645,2.95-0.645,5.098v12.832c0,0.157,0.039,0.234,0.117,0.234
			c0.039,0,0.097-0.039,0.176-0.117c0.859-0.938,2.08-1.835,3.662-2.695C138.972,16.015,140.485,15.585,141.931,15.585z"/>
	</g>
</g>
<g id="W_copy">
	<g>
		<path fill="#FFFFFF" d="M153.056,2.753c0.195,0,2.246-0.097,6.152-0.293c0.078,0.157,0.107,0.479,0.088,0.967
			c-0.02,0.489-0.088,0.732-0.205,0.732c-0.274,0-0.606,0.029-0.996,0.088c-0.391,0.059-0.811,0.234-1.26,0.527
			c-0.45,0.293-0.674,0.655-0.674,1.084c0,1.172,0.449,2.618,1.348,4.336l12.129,24.023c0.117,0.196,0.273,0.245,0.469,0.146
			c0.195-0.097,0.332-0.244,0.41-0.439l4.863-10.137l-6.152-12.656c-1.133-2.304-2.266-4.179-3.398-5.625
			c-0.313-0.39-0.84-0.712-1.582-0.967c-0.743-0.253-1.348-0.381-1.816-0.381c-0.157,0-0.234-0.293-0.234-0.879
			c0-0.39,0.078-0.664,0.234-0.82c4.492,0.196,6.953,0.293,7.383,0.293c0.156,0,2.187-0.097,6.094-0.293
			c0.078,0.157,0.107,0.479,0.088,0.967c-0.02,0.489-0.088,0.732-0.205,0.732c-0.274,0-0.596,0.029-0.967,0.088
			c-0.372,0.059-0.782,0.225-1.23,0.498c-0.45,0.274-0.674,0.645-0.674,1.113c0,1.016,0.449,2.461,1.348,4.336l3.867,7.91
			l4.102-8.613c0.546-1.21,0.82-2.344,0.82-3.398c0-0.664-0.42-1.152-1.26-1.465c-0.84-0.312-1.573-0.469-2.197-0.469
			c-0.157,0-0.234-0.244-0.234-0.732c0-0.488,0.078-0.81,0.234-0.967c3.125,0.196,5.098,0.293,5.918,0.293
			c0.156,0,2.187-0.097,6.094-0.293c0.078,0.157,0.107,0.479,0.088,0.967c-0.02,0.489-0.088,0.732-0.205,0.732
			c-0.391,0-1.065,0.157-2.021,0.469c-0.958,0.313-1.631,0.703-2.021,1.172c-0.703,0.86-1.836,2.871-3.398,6.035l-4.512,9.258
			l6.387,13.125c0.234,0.43,0.469,0.333,0.703-0.293l10.488-24.082c0.664-1.601,0.996-2.832,0.996-3.691
			c0-0.664-0.401-1.162-1.201-1.494c-0.801-0.332-1.514-0.498-2.139-0.498c-0.157,0-0.234-0.244-0.234-0.732
			c0-0.488,0.078-0.81,0.234-0.967c3.125,0.196,5.117,0.293,5.977,0.293c0.898,0,1.641-0.019,2.227-0.059
			c0.586-0.039,1.191-0.078,1.816-0.117c0.625-0.039,1.21-0.078,1.758-0.117c0.078,0.234,0.117,0.527,0.117,0.879
			c0,0.547-0.079,0.82-0.234,0.82c-0.391,0-1.016,0.146-1.875,0.439c-0.86,0.293-1.504,0.694-1.934,1.201
			c-1.133,1.329-2.266,3.301-3.398,5.918l-12.422,28.125c-0.586,1.25-1.348,1.875-2.285,1.875c-0.234,0-0.41-0.098-0.527-0.293
			l-7.148-14.648l-6.328,13.066c-0.586,1.25-1.348,1.875-2.285,1.875c-0.234,0-0.41-0.098-0.527-0.293L152.47,11.132
			c-1.133-2.304-2.266-4.179-3.398-5.625c-0.313-0.39-0.84-0.712-1.582-0.967c-0.743-0.253-1.348-0.381-1.816-0.381
			c-0.157,0-0.234-0.253-0.234-0.762c0-0.469,0.078-0.781,0.234-0.938C150.165,2.656,152.625,2.753,153.056,2.753z"/>
	</g>
</g>
<g id="orks_copy">
	<g>
		<path fill="#FFFFFF" d="M213.056,15.644c3.516,0,6.523,1.27,9.023,3.809c2.499,2.54,3.75,5.586,3.75,9.141
			c0,3.594-1.222,6.67-3.662,9.229c-2.441,2.559-5.44,3.838-8.994,3.838c-3.555,0-6.583-1.279-9.082-3.838
			c-2.5-2.558-3.75-5.634-3.75-9.229c0-3.633,1.21-6.699,3.633-9.199C206.395,16.894,209.423,15.644,213.056,15.644z
			 M212.411,17.929c-2.071,0-3.76,0.948-5.068,2.842c-1.309,1.895-1.963,4.209-1.963,6.943c0,3.204,0.83,5.947,2.49,8.232
			c1.66,2.285,3.604,3.428,5.83,3.428c2.07,0,3.77-0.976,5.098-2.93c1.327-1.953,1.992-4.296,1.992-7.031
			c0-3.164-0.841-5.869-2.52-8.115C216.591,19.052,214.638,17.929,212.411,17.929z"/>
		<path fill="#FFFFFF" d="M245.224,15.644c2.305,0,3.828,0.567,4.57,1.699c0,1.368-0.215,2.364-0.645,2.988
			c-0.431,0.625-0.958,0.938-1.582,0.938c-0.703,0-1.348-0.332-1.934-0.996c-0.586-0.664-1.387-0.996-2.402-0.996
			c-1.211,0-2.266,0.567-3.164,1.699c-0.899,1.133-1.348,2.325-1.348,3.574v8.789c0,2.266,0.155,4.004,0.469,5.215
			c0.078,0.274,0.595,0.538,1.553,0.791c0.957,0.254,1.631,0.381,2.021,0.381c0.117,0,0.195,0.234,0.234,0.703
			c0.038,0.469,0.02,0.801-0.059,0.996c-3.906-0.195-6.016-0.293-6.328-0.293c-0.234,0-2.364,0.098-6.387,0.293
			c-0.156-0.157-0.234-0.478-0.234-0.967c0-0.488,0.078-0.732,0.234-0.732c0.469,0,1.162-0.126,2.08-0.381
			c0.917-0.253,1.415-0.517,1.494-0.791c0.272-1.132,0.41-2.5,0.41-4.102V23.378c0-1.523-0.273-2.578-0.82-3.164
			c-0.391-0.469-0.87-0.791-1.436-0.967c-0.566-0.176-1.035-0.264-1.406-0.264c-0.372,0-0.557-0.039-0.557-0.117
			c0-0.938,0.117-1.425,0.352-1.465c4.14-0.625,6.835-1.132,8.086-1.523c0.038,0,0.137-0.019,0.293-0.059
			c0.155,0,0.254,0.167,0.293,0.498c0.038,0.333,0.038,0.577,0,0.732l-0.352,2.93c0.703-1.055,1.67-2.041,2.9-2.959
			C242.792,16.103,244.013,15.644,245.224,15.644z"/>
		<path fill="#FFFFFF" d="M272.997,19.687c-0.665,0.391-1.934,1.318-3.809,2.783s-3.496,2.9-4.863,4.307
			c1.133,1.211,2.52,2.745,4.16,4.6c1.641,1.856,2.988,3.36,4.043,4.512c1.055,1.153,1.777,1.904,2.168,2.256
			c0.664,0.547,1.503,0.967,2.52,1.26c1.016,0.293,1.737,0.439,2.168,0.439c0.155,0,0.234,0.313,0.234,0.938
			c0,0.352-0.021,0.566-0.059,0.645c-3.906-0.195-6.035-0.293-6.387-0.293c-0.079,0-2.109,0.098-6.094,0.293
			c-0.156-0.157-0.234-0.458-0.234-0.908c0-0.449,0.078-0.674,0.234-0.674c0.39,0,0.84-0.078,1.348-0.234
			c0.507-0.156,0.762-0.332,0.762-0.527c0-0.078-0.021-0.136-0.059-0.176l-8.555-9.258l-0.703,0.176v3.516
			c0.078,2.578,0.234,4.317,0.469,5.215c0.078,0.274,0.586,0.538,1.523,0.791c0.938,0.254,1.602,0.381,1.992,0.381
			c0.117,0,0.195,0.234,0.234,0.703c0.038,0.469,0.02,0.801-0.059,0.996c-3.906-0.195-5.997-0.293-6.27-0.293
			c-0.234,0-2.364,0.098-6.387,0.293c-0.156-0.157-0.234-0.478-0.234-0.967c0-0.488,0.078-0.732,0.234-0.732
			c0.469,0,1.162-0.126,2.08-0.381c0.917-0.253,1.415-0.517,1.494-0.791c0.272-1.132,0.41-2.5,0.41-4.102V9.081
			c0-1.328-0.117-2.578-0.352-3.75c-0.196-0.625-1.192-0.938-2.988-0.938h-0.527c-0.234,0-0.352-0.214-0.352-0.645
			c0-0.625,0.117-0.938,0.352-0.938c1.172-0.117,2.256-0.273,3.252-0.469c0.996-0.195,1.777-0.39,2.344-0.586
			c0.565-0.195,1.045-0.381,1.436-0.557c0.39-0.176,0.664-0.322,0.82-0.439l0.293-0.176h0.117c0.155,0,0.312,0.108,0.469,0.322
			c0.155,0.215,0.254,0.42,0.293,0.615c-0.431,1.25-0.645,2.95-0.645,5.098v20.508c0.82-0.195,1.309-0.371,1.465-0.527
			c0.858-0.742,1.758-1.503,2.695-2.285c0.938-0.781,1.641-1.367,2.109-1.758c0.469-0.39,0.917-0.781,1.348-1.172
			c0.43-0.39,0.723-0.703,0.879-0.938c0.155-0.234,0.234-0.469,0.234-0.703c0-0.469-0.431-0.742-1.289-0.82
			c-0.859-0.078-1.31-0.156-1.348-0.234c-0.273-0.781-0.255-1.23,0.059-1.348h4.629c0.586,0,1.201-0.019,1.846-0.059
			c0.645-0.039,1.406-0.078,2.285-0.117c0.879-0.039,1.649-0.078,2.314-0.117c0.155,0.079,0.243,0.254,0.264,0.527
			c0.02,0.274-0.01,0.527-0.088,0.762c-0.079,0.234-0.156,0.352-0.234,0.352c-0.508,0-1.23,0.117-2.168,0.352
			S273.31,19.492,272.997,19.687z"/>
		<path fill="#FFFFFF" d="M290.575,15.644c0.858,0,1.942,0.108,3.252,0.322c1.309,0.215,2.217,0.362,2.725,0.439
			c0.39,1.797,0.624,3.79,0.703,5.977c0,0.196-0.255,0.293-0.762,0.293c-0.548,0-0.841-0.136-0.879-0.41
			c-0.196-1.093-0.753-2.128-1.67-3.105c-0.918-0.976-1.963-1.465-3.135-1.465c-2.812,0-4.219,1.153-4.219,3.457
			c0,0.586,0.078,1.104,0.234,1.553c0.155,0.45,0.459,0.879,0.908,1.289c0.448,0.41,0.791,0.703,1.025,0.879
			s0.752,0.489,1.553,0.938c0.8,0.45,1.298,0.732,1.494,0.85c0.155,0.079,0.615,0.342,1.377,0.791
			c0.762,0.45,1.298,0.772,1.611,0.967c0.312,0.196,0.771,0.527,1.377,0.996c0.605,0.469,1.045,0.889,1.318,1.26
			c0.272,0.372,0.536,0.84,0.791,1.406c0.254,0.567,0.381,1.143,0.381,1.729c0,2.305-0.899,4.229-2.695,5.771
			c-1.797,1.543-3.906,2.314-6.328,2.314c-0.82,0-1.573-0.049-2.256-0.146c-0.684-0.098-1.494-0.264-2.432-0.498
			s-1.661-0.39-2.168-0.469c-0.234-0.625-0.46-1.601-0.674-2.93c-0.215-1.328-0.322-2.382-0.322-3.164
			c0.312-0.234,0.547-0.352,0.703-0.352c0.586,0,0.898,0.117,0.938,0.352c0.234,1.172,0.967,2.314,2.197,3.428
			s2.568,1.67,4.014,1.67c1.25,0,2.275-0.341,3.076-1.025c0.8-0.683,1.201-1.67,1.201-2.959c0-0.664-0.127-1.279-0.381-1.846
			c-0.255-0.566-0.665-1.074-1.23-1.523c-0.566-0.449-1.094-0.82-1.582-1.113c-0.489-0.293-1.182-0.674-2.08-1.143
			c-0.899-0.469-1.562-0.839-1.992-1.113c-3.047-1.758-4.57-3.847-4.57-6.27c0-2.109,0.85-3.828,2.549-5.156
			C286.327,16.308,288.31,15.644,290.575,15.644z"/>
	</g>
	<g>
	</g>
	<g>
	</g>
	<g>
	</g>
	<g>
	</g>
	<g>
	</g>
	<g>
	</g>
	<g>
	</g>
	<g>
	</g>
	<g>
	</g>
	<g>
	</g>
	<g>
	</g>
	<g>
	</g>
	<g>
	</g>
	<g>
	</g>
	<g>
	</g>
</g>
</svg>
