<?xml version="1.0" encoding="utf-8"?>
<!-- Generator: Adobe Illustrator 16.0.4, SVG Export Plug-In . SVG Version: 6.00 Build 0)  -->
<!DOCTYPE svg PUBLIC "-//W3C//DTD SVG 1.1//EN" "http://www.w3.org/Graphics/SVG/1.1/DTD/svg11.dtd">
<svg version="1.1" id="Signature_Templates" xmlns="http://www.w3.org/2000/svg" xmlns:xlink="http://www.w3.org/1999/xlink"
	 x="0px" y="0px" width="107.221px" height="29.585px" viewBox="0 0 107.221 29.585" enable-background="new 0 0 107.221 29.585"
	 xml:space="preserve">
<g>
	<g>
		<path fill="#8C191C" d="M54.542,15.569c-2.551,0-2.749-1.938-2.749-2.531c0-0.699,0.186-1.934,1.813-2.531
			c1.677-0.617,2.036-0.689,3.188-1.053V9.157c0-0.561,0-0.695-0.108-1.043c-0.223-0.666-0.864-1.082-1.727-1.082
			c-1.274,0-1.795,0.969-1.799,0.98l-0.103,0.189l-0.472-0.279l0.047-0.145c0.229-0.734,1.155-1.979,3.173-1.979
			c1.312,0,2.17,0.373,2.696,1.176c0.395,0.639,0.428,1.52,0.428,2.443c0,0.809-0.021,1.713-0.037,2.441
			c-0.013,0.5-0.022,0.932-0.022,1.197c0,0.664,0.105,1.178,0.659,1.178c0.139,0,0.229-0.027,0.309-0.092l0.153-0.129l0.312,0.354
			L60.199,14.5c-0.513,0.613-0.996,1.049-1.861,1.049c-0.747,0-1.268-0.355-1.438-0.955C56.48,15.028,55.725,15.569,54.542,15.569z
			 M56.795,10.62c-1.249,0.375-1.679,0.586-2.066,0.781c-0.539,0.273-0.82,0.826-0.82,1.479c0,0.508,0.183,1.363,1.405,1.363
			c0.402,0,0.98-0.076,1.481-0.436V10.62z"/>
	</g>
	<g>
		<g>
			<path fill="#8C191C" d="M38.956,15.543c-1.222,0-2.151-0.133-3.108-0.445l-0.135-0.043v-0.684c0-0.912-0.018-1.271-0.039-1.561
				l-0.026-0.475l0.554,0.004l0.012,0.197c0.022,0.424,0.168,0.842,0.426,1.135c0.4,0.453,1.323,0.723,2.179,0.723
				c1.794,0,2.629-0.676,2.629-2.135c0-1.248-0.771-1.768-1.838-2.488l-0.17-0.115l-1.127-0.752C36.746,7.87,35.95,7.04,35.95,5.381
				c0-0.812,0.306-3.461,4.25-3.461c1.62,0,2.868,0.211,2.922,0.221l0.17,0.029l-0.004,0.166c0,0.006-0.017,0.52-0.017,1.078
				c0,0.439-0.008,0.82,0.009,1.217l0.015,0.295h-0.478l-0.015-0.186c-0.033-0.5-0.179-0.861-0.455-1.139
				c-0.38-0.379-1.218-0.557-2.106-0.557c-2.092,0-2.334,1.074-2.334,1.881c0,1.109,0.567,1.484,1.81,2.307l1.428,0.943
				c1.212,0.811,2.36,1.576,2.36,3.59C43.505,15.174,40.323,15.543,38.956,15.543z"/>
		</g>
		<g>
			<path fill="#8C191C" d="M48.301,15.604c-1.453,0-2.262-0.52-2.621-1.684c-0.146-0.461-0.146-1.373-0.146-1.916
				c0-1.506,0.014-2.711,0.031-4.109l0.006-0.656h-1.242V6.87l0.122-0.049c0.579-0.238,0.798-0.402,1.054-0.6
				c0.905-0.701,1.534-1.887,1.543-1.904l0.21-0.359h0.412v2.115h3.204v1.166h-3.204v4.943c0,1.473,0.275,2.316,1.673,2.316
				c0.65,0,1.148-0.25,1.154-0.254l0.192-0.1l0.162,0.383l-0.08,0.092C50.738,14.657,50.012,15.604,48.301,15.604z"/>
		</g>
		<g>
			<path fill="#8C191C" d="M61.102,15.483v-0.445l0.182-0.012c0.16-0.014,0.562-0.076,0.837-0.391
				c0.293-0.326,0.308-1.127,0.308-2.73V9.215c0-1.156-0.018-1.654-0.187-1.906c-0.191-0.275-0.615-0.305-0.844-0.322
				c-0.027,0-0.053-0.004-0.076-0.006L61.14,6.963V6.424l0.214,0.018c0.037,0.002,0.085,0.004,0.146,0.004
				c0.29,0,0.977-0.037,1.7-0.18c0.551-0.088,0.876-0.279,0.995-0.332L64.3,5.883l0.183,0.109v0.746
				c0.477-0.352,1.432-0.902,2.729-0.902c1.697,0,2.805,0.791,3.12,2.23c0.089,0.357,0.123,1.223,0.123,1.684v2.746
				c0,1.553,0.062,1.99,0.353,2.264c0.148,0.135,0.456,0.244,0.729,0.262l0.183,0.016v0.439l-0.463-0.025
				c-0.677-0.035-1.26-0.066-1.869-0.066c-0.694,0-1.296,0-2.137,0.078l-0.216,0.02v-0.432l0.169-0.025
				c0.361-0.057,0.618-0.16,0.779-0.322c0.303-0.303,0.32-1.027,0.344-1.65c0.003-0.105,0.008-0.215,0.012-0.328
				c0.021-0.352,0.021-1.092,0.021-1.631c0-0.703,0-1.432-0.079-2.152c-0.139-1.215-0.773-1.781-1.998-1.781
				c-0.838,0-1.362,0.191-1.758,0.395v4.941c0,1.553,0.063,1.99,0.352,2.264c0.148,0.135,0.456,0.244,0.729,0.262l0.185,0.016v0.439
				l-0.501-0.027c-0.653-0.035-1.215-0.064-1.812-0.064c-0.677,0-1.315,0-2.159,0.078L61.102,15.483z"/>
		</g>
		<g>
			<path fill="#8C191C" d="M72.841,15.483v-0.455l0.182-0.014c0.16-0.01,0.56-0.072,0.837-0.387
				c0.291-0.326,0.306-1.119,0.306-2.723V7.239h-1.226V6.711l0.123-0.053c0.533-0.219,0.862-0.393,1.103-0.58
				c0.002-0.834,0.029-1.91,0.143-2.496c0.37-1.941,1.639-2.928,3.773-2.928c0.92,0,1.79,0.307,2.298,0.717l0.072,0.061l0.03,0.199
				l-0.935,1.297L79.323,2.93l-0.052-0.115c-0.358-0.799-0.877-1.111-1.586-1.111c-0.296,0-0.699,0.088-0.948,0.338
				c-0.407,0.406-0.476,1.012-0.476,2.213v1.818h2.096v1.166h-2.096v5.221c0,1.24,0.041,1.846,0.203,2.088
				c0.264,0.398,1.062,0.428,1.298,0.428h0.199v0.502l-0.208-0.014c-1.034-0.053-1.808-0.078-2.362-0.078
				c-0.7,0-1.493,0-2.335,0.078L72.841,15.483z"/>
		</g>
		<g>
			<path fill="#8C191C" d="M83.665,15.643c-2.873,0-4.588-1.789-4.588-4.785c0-2.326,1.252-5.043,4.784-5.043
				c2.874,0,4.588,1.789,4.588,4.783C88.449,12.928,87.196,15.643,83.665,15.643z M83.783,6.901c-0.557,0-1.005,0.145-1.336,0.428
				c-0.754,0.635-1.138,1.787-1.138,3.43c0,0.633,0.118,3.797,2.433,3.797c0.556,0,1.004-0.145,1.336-0.426
				c0.753-0.635,1.136-1.787,1.136-3.43C86.214,10.065,86.097,6.901,83.783,6.901z"/>
		</g>
		<g>
			<path fill="#8C191C" d="M89.358,15.483v-0.475l0.184-0.014c0.158-0.012,0.558-0.074,0.835-0.389
				c0.291-0.324,0.306-1.098,0.306-2.701V9.215c0-1.156-0.016-1.654-0.185-1.906c-0.193-0.275-0.616-0.305-0.844-0.322
				c-0.027,0-0.054-0.004-0.076-0.006l-0.182-0.018v-0.57l0.202,0.004c0.035,0.002,0.097,0.006,0.155,0.006
				c0.293,0,0.979-0.039,1.702-0.182c0.457-0.074,0.85-0.193,1.008-0.266l0.107-0.049l0.168,0.086v0.818
				c0.448-0.426,1.166-0.877,2.176-0.877c0.659,0,1.188,0.176,1.577,0.525l0.063,0.059v0.297l-0.793,1.451h-0.384l-0.057-0.09
				c-0.222-0.346-0.662-0.758-1.515-0.758c-0.392,0-0.729,0.096-1.028,0.299v4.742c0,1.24,0.042,1.826,0.203,2.07
				c0.264,0.395,1.062,0.426,1.298,0.426h0.199v0.521l-0.208-0.014c-1.034-0.053-1.808-0.078-2.362-0.078
				c-0.699,0-1.493,0-2.334,0.078L89.358,15.483z"/>
		</g>
		<g>
			<path fill="#8C191C" d="M104.149,15.616l-0.251-0.084v-0.791c-0.467,0.344-1.393,0.881-2.631,0.881
				c-2.581,0-4.251-1.791-4.251-4.566c0-0.922,0.178-1.795,0.512-2.533c0.789-1.707,2.426-2.686,4.492-2.686
				c0.755,0,1.435,0.092,1.839,0.18v-2c0-1.172-0.017-1.799-0.185-2.051c-0.192-0.275-0.605-0.305-0.825-0.322
				c-0.03,0-0.057-0.004-0.077-0.006l-0.179-0.018l0.044-0.422h0.197c0.044,0,1.131-0.092,2.015-0.264
				c0.37-0.061,0.738-0.145,0.93-0.213l0.094-0.035l0.163,0.096l-0.008,0.094c-0.064,0.773-0.073,2.432-0.073,3.674v7.672
				c0,1.146,0.018,1.855,0.181,2.084c0.194,0.281,0.607,0.328,0.83,0.342c0.029,0.004,0.055,0.006,0.076,0.01l0.179,0.006v0.506
				h-0.197c-0.21,0-1.033,0.057-1.825,0.193c-0.46,0.074-0.797,0.141-0.961,0.215L104.149,15.616z M101.981,6.963
				c-1.837,0-2.729,1.254-2.729,3.834c0,1.047,0.295,3.48,3.025,3.48h0.088c0.332,0,0.953-0.049,1.494-0.383V7.592
				C103.705,7.44,103.131,6.963,101.981,6.963z"/>
		</g>
	</g>
</g>
<g>
	<g>
		<path fill="#0A505C" d="M35.646,20.731h1.392v6.673h3.265v1.176h-4.656V20.731z"/>
		<path fill="#0A505C" d="M43.848,20.731h1.392v7.849h-1.392V20.731z"/>
		<path fill="#0A505C" d="M49.439,20.731h2.508c0.408,0,0.782,0.035,1.122,0.103c0.34,0.068,0.636,0.177,0.888,0.324
			s0.448,0.347,0.588,0.594c0.141,0.248,0.21,0.552,0.21,0.912c0,0.376-0.109,0.724-0.329,1.044c-0.221,0.32-0.559,0.54-1.015,0.66
			v0.048c0.568,0.097,1.002,0.298,1.302,0.606c0.301,0.308,0.45,0.726,0.45,1.254c0,0.392-0.076,0.732-0.228,1.02
			c-0.152,0.288-0.362,0.528-0.63,0.721c-0.269,0.191-0.587,0.334-0.954,0.426c-0.368,0.092-0.769,0.138-1.2,0.138h-2.712V20.731z
			 M51.827,23.983c0.552,0,0.95-0.1,1.194-0.299c0.244-0.2,0.366-0.484,0.366-0.853c0-0.36-0.128-0.62-0.385-0.78
			c-0.256-0.16-0.64-0.24-1.151-0.24h-1.021v2.172H51.827z M52.008,27.5c0.575,0,1.02-0.108,1.332-0.323
			c0.312-0.217,0.468-0.549,0.468-0.996c0-0.408-0.152-0.711-0.456-0.906c-0.305-0.196-0.752-0.295-1.344-0.295h-1.177V27.5H52.008z
			"/>
		<path fill="#0A505C" d="M63.175,28.58l-1.692-3.071h-1.2v3.071h-1.392v-7.849h2.652c0.407,0,0.787,0.041,1.14,0.121
			c0.352,0.08,0.656,0.209,0.912,0.39c0.256,0.18,0.458,0.418,0.605,0.714c0.148,0.296,0.223,0.664,0.223,1.104
			c0,0.601-0.143,1.084-0.427,1.453c-0.283,0.367-0.662,0.631-1.134,0.791l1.872,3.276H63.175z M60.282,24.404h1.116
			c0.536,0,0.946-0.112,1.23-0.337c0.283-0.223,0.426-0.559,0.426-1.008c0-0.455-0.143-0.771-0.426-0.947
			c-0.284-0.176-0.694-0.264-1.23-0.264h-1.116V24.404z"/>
		<path fill="#0A505C" d="M72.426,26.456h-2.64l-0.612,2.124h-1.416l2.557-7.849h1.632l2.556,7.849h-1.464L72.426,26.456z
			 M72.114,25.364l-0.276-0.96c-0.128-0.416-0.25-0.845-0.365-1.284c-0.116-0.439-0.23-0.876-0.343-1.309h-0.048
			c-0.112,0.44-0.224,0.879-0.336,1.314s-0.232,0.862-0.36,1.278l-0.275,0.96H72.114z"/>
		<path fill="#0A505C" d="M82.129,28.58l-1.692-3.071h-1.2v3.071h-1.392v-7.849h2.652c0.407,0,0.787,0.041,1.14,0.121
			c0.352,0.08,0.656,0.209,0.912,0.39c0.256,0.18,0.458,0.418,0.605,0.714c0.148,0.296,0.223,0.664,0.223,1.104
			c0,0.601-0.143,1.084-0.427,1.453c-0.283,0.367-0.662,0.631-1.134,0.791l1.872,3.276H82.129z M79.236,24.404h1.116
			c0.536,0,0.946-0.112,1.23-0.337c0.283-0.223,0.426-0.559,0.426-1.008c0-0.455-0.143-0.771-0.426-0.947
			c-0.284-0.176-0.694-0.264-1.23-0.264h-1.116V24.404z"/>
		<path fill="#0A505C" d="M87.245,20.731h1.392v7.849h-1.392V20.731z"/>
		<path fill="#0A505C" d="M92.842,20.731h4.728v1.177h-3.336v2.004h2.82v1.176h-2.82v2.316h3.456v1.176h-4.848V20.731z"/>
		<path fill="#0A505C" d="M101.902,26.624c0.279,0.264,0.6,0.479,0.96,0.643c0.359,0.164,0.72,0.246,1.079,0.246
			c0.448,0,0.788-0.092,1.021-0.277c0.231-0.184,0.348-0.428,0.348-0.731c0-0.159-0.029-0.296-0.09-0.407
			c-0.06-0.112-0.144-0.211-0.252-0.295c-0.107-0.084-0.236-0.162-0.384-0.234c-0.148-0.071-0.311-0.143-0.486-0.215l-1.08-0.469
			c-0.191-0.08-0.382-0.18-0.569-0.3c-0.188-0.12-0.358-0.264-0.511-0.433c-0.151-0.168-0.273-0.363-0.365-0.588
			c-0.093-0.223-0.139-0.479-0.139-0.768c0-0.312,0.066-0.602,0.198-0.869c0.132-0.269,0.313-0.502,0.546-0.703
			c0.232-0.199,0.51-0.355,0.834-0.468s0.678-0.168,1.062-0.168c0.456,0,0.896,0.091,1.319,0.271s0.788,0.422,1.093,0.726
			l-0.708,0.888c-0.257-0.207-0.521-0.371-0.792-0.492c-0.272-0.119-0.576-0.18-0.912-0.18c-0.376,0-0.677,0.082-0.9,0.246
			s-0.336,0.391-0.336,0.678c0,0.152,0.034,0.282,0.102,0.391c0.068,0.107,0.16,0.203,0.276,0.287s0.25,0.16,0.402,0.229
			c0.151,0.068,0.308,0.135,0.468,0.198l1.068,0.444c0.231,0.096,0.443,0.207,0.636,0.336c0.191,0.128,0.357,0.275,0.498,0.443
			c0.14,0.168,0.25,0.362,0.33,0.582c0.08,0.221,0.12,0.475,0.12,0.762c0,0.32-0.064,0.621-0.192,0.9
			c-0.128,0.28-0.314,0.526-0.558,0.738c-0.244,0.212-0.54,0.38-0.889,0.504c-0.348,0.124-0.742,0.186-1.182,0.186
			c-0.528,0-1.038-0.1-1.53-0.299c-0.492-0.201-0.926-0.484-1.302-0.853L101.902,26.624z"/>
	</g>
</g>
<path fill="#8C191C" d="M15.025,0C6.74,0,0,6.637,0,14.793c0,8.155,6.74,14.792,15.025,14.792c8.287,0,15.026-6.637,15.026-14.792
	C30.051,6.637,23.312,0,15.025,0z M15.025,28.003c-7.41,0-13.42-5.916-13.42-13.21c0-7.295,6.01-13.211,13.42-13.211
	c7.412,0,13.422,5.916,13.422,13.211C28.447,22.087,22.437,28.003,15.025,28.003z"/>
<path fill="#D2C295" d="M28.964,14.793c0,7.575-6.243,13.716-13.94,13.716c-7.695,0-13.936-6.141-13.936-13.716
	c0-7.578,6.24-13.721,13.936-13.721C22.721,1.072,28.964,7.215,28.964,14.793z"/>
<path fill="#8C191C" d="M25.804,20.919c-0.779-0.986-1.219-2.201-1.219-3.465c0-0.322,0.027-0.646,0.085-0.971
	c0.001,0,0.005-0.016,0.005-0.018c0.288-1.599,1.26-2.957,2.611-3.793c-1.562-0.331-2.948-1.284-3.779-2.7
	c-0.513-0.874-0.765-1.846-0.765-2.818c0-0.583,0.093-1.165,0.273-1.724c-1.407,0.728-3.088,0.865-4.644,0.31
	c-1.548-0.558-2.741-1.734-3.343-3.19c-0.602,1.456-1.798,2.633-3.356,3.194c-1.544,0.552-3.221,0.414-4.629-0.315
	c0.18,0.559,0.273,1.136,0.273,1.719c0,0.975-0.256,1.957-0.771,2.842c-0.828,1.403-2.215,2.353-3.774,2.683
	c1.337,0.827,2.303,2.169,2.605,3.752c0,0,0.018,0.109,0.019,0.113c0.051,0.307,0.077,0.613,0.077,0.916
	c0,1.264-0.44,2.48-1.217,3.467c1.575-0.213,3.203,0.217,4.464,1.252l0.045,0.039c0,0,0.03,0.025,0.046,0.039
	c1.214,1.039,1.903,2.521,1.963,4.061c1.072-1.163,2.604-1.869,4.265-1.871c1.646,0,3.174,0.703,4.247,1.869
	c0.06-1.57,0.776-3.078,2.047-4.129C22.596,21.14,24.225,20.708,25.804,20.919z"/>
<ellipse fill="#D1C193" cx="15.036" cy="14.793" rx="9.167" ry="9.024"/>
<g>
	<g>
		<g>
			<g>
				<path fill="#0A505C" d="M4.993,17.19c0-0.07-0.014-0.137-0.018-0.205c-1.279,1.262-2.101,2.756-2.101,3.816
					c0,0.176,0.031,0.334,0.076,0.482C4.159,20.362,4.993,18.696,4.993,17.19z M3.263,21.77c0.767,0.798,2.792,0.989,4.827,0.464
					C6.755,21.39,4.732,21.191,3.263,21.77z M21.969,22.235c2.035,0.523,4.062,0.332,4.829-0.466
					C25.329,21.191,23.305,21.39,21.969,22.235z M25.067,17.187c0,1.508,0.833,3.178,2.042,4.1c0.046-0.148,0.076-0.309,0.076-0.482
					c0-1.062-0.821-2.557-2.102-3.818C25.08,17.052,25.067,17.118,25.067,17.187z M18.104,5.113c-0.557-2.044-1.739-3.72-2.8-3.976
					C15.526,2.729,16.714,4.403,18.104,5.113z M11.957,5.113c1.389-0.711,2.577-2.386,2.799-3.976
					C13.696,1.393,12.513,3.069,11.957,5.113z M8.755,23.594c0,1.778,0.527,3.343,1.333,3.878c0.065-0.303,0.127-0.607,0.127-0.934
					c0-1.339-0.549-2.768-1.411-3.693C8.785,23.096,8.755,23.349,8.755,23.594z M25.243,16.105c1.962-0.894,3.413-2.303,3.475-3.38
					C27.173,13.208,25.71,14.642,25.243,16.105z M11.103,5.417C9.39,4.25,7.43,3.759,6.438,4.25
					C7.617,5.293,9.548,5.773,11.103,5.417z M6.748,7.382c0-1.004-0.265-2.013-0.756-2.787C5.709,4.963,5.561,5.522,5.561,6.202
					c0,0.931,0.274,2.06,0.778,3.142C6.589,8.75,6.748,8.083,6.748,7.382z M10.62,27.661c1.088,0.131,2.741-1.006,3.967-2.738
					C13.028,25.113,11.374,26.249,10.62,27.661z M28.616,12.205c-0.428-1.003-2.317-1.876-4.465-2.062
					C25.105,11.382,26.993,12.264,28.616,12.205z M1.341,12.724c0.06,1.075,1.512,2.486,3.476,3.381
					C4.349,14.642,2.887,13.208,1.341,12.724z M19.843,26.534c0,0.328,0.062,0.633,0.128,0.938c0.806-0.535,1.334-2.098,1.334-3.875
					c0-0.246-0.03-0.5-0.052-0.752C20.39,23.771,19.843,25.198,19.843,26.534z M23.623,4.25c-0.996-0.491-2.953,0-4.664,1.167
					C20.496,5.764,22.455,5.275,23.623,4.25z M5.91,10.143c-2.145,0.185-4.037,1.057-4.465,2.06
					C3.066,12.263,4.952,11.382,5.91,10.143z M15.47,24.921c1.227,1.734,2.881,2.871,3.968,2.74
					C18.685,26.245,17.029,25.11,15.47,24.921z M23.724,9.343c0.5-1.082,0.776-2.208,0.776-3.138c0-0.68-0.149-1.24-0.432-1.607
					c-0.491,0.774-0.756,1.783-0.756,2.786C23.312,8.084,23.47,8.75,23.724,9.343z"/>
			</g>
		</g>
		<g>
			<path fill="#0A505C" d="M11.366,10.792c-1.467-0.424-2.932-0.605-4.237-0.567c0,0.001,0,0.001,0,0.001
				c0.614,1.175,1.514,2.379,2.643,3.458l4.298,0.558L11.366,10.792z"/>
			<path fill="#0A505C" d="M9.614,14.046c-1.406,0.604-2.65,1.395-3.63,2.251V16.3c1.237,0.509,2.711,0.862,4.277,0.977l3.675-2.299
				L9.614,14.046z"/>
			<path fill="#0A505C" d="M10.383,17.65c-0.683,1.354-1.122,2.748-1.309,4.025c0,0,0,0.001,0.001,0.001
				c1.282-0.395,2.65-1.059,3.927-1.97l1.316-4.086L10.383,17.65z"/>
			<path fill="#0A505C" d="M20.44,13.657c1.088-1.028,1.965-2.172,2.577-3.292v-0.002c-1.356-0.064-2.89,0.106-4.422,0.54
				l-2.609,3.339L20.44,13.657z"/>
			<path fill="#0A505C" d="M18.42,10.512c0.165-1.48,0.087-2.913-0.173-4.16L18.246,6.35c-1.078,0.808-2.135,1.901-3.024,3.197
				l0.186,4.216L18.42,10.512z"/>
			<path fill="#0A505C" d="M14.833,9.39c-0.844-1.244-1.84-2.3-2.861-3.094c0,0,0,0-0.001,0c-0.296,1.294-0.393,2.79-0.234,4.336
				l2.916,3.131L14.833,9.39z"/>
			<path fill="#0A505C" d="M24.053,16.455c-1.001-0.91-2.286-1.75-3.747-2.385l-4.185,0.907l3.798,2.373
				C21.429,17.249,22.849,16.927,24.053,16.455L24.053,16.455z"/>
			<path fill="#0A505C" d="M17.097,19.83c1.226,0.888,2.534,1.546,3.77,1.95v-0.002c-0.155-1.181-1.075-3.529-1.352-4.219
				l-3.774-1.937L17.097,19.83z"/>
			<path fill="#0A505C" d="M13.331,19.94c0.359,1.466,0.934,2.805,1.619,3.898h0.001c0.731-1.119,1.346-2.498,1.73-4.014
				l-1.652-3.948L13.331,19.94z"/>
		</g>
	</g>
</g>
<g>
	<g>
		<path fill="#8C191C" d="M4.987,14.793c0,5.454,4.507,9.893,10.05,9.893c5.54,0,10.048-4.438,10.048-9.893
			c0-5.455-4.508-9.893-10.048-9.893C9.495,4.9,4.987,9.338,4.987,14.793z M5.409,14.793c0-5.227,4.318-9.478,9.628-9.478
			c5.308,0,9.628,4.251,9.628,9.478c0,5.226-4.32,9.478-9.628,9.478C9.727,24.271,5.409,20.019,5.409,14.793z"/>
		<path fill="#8C191C" d="M17.103,14.789c0,1.129-0.929,2.041-2.074,2.041c-1.141,0-2.071-0.912-2.071-2.041
			c0-1.126,0.93-2.038,2.071-2.038C16.174,12.75,17.103,13.663,17.103,14.789z"/>
	</g>
</g>
<path fill="#D2C295" d="M12.857,14.791c0,1.182,0.976,2.144,2.176,2.144c1.201,0,2.178-0.962,2.178-2.144
	c0-1.182-0.977-2.142-2.178-2.142C13.833,12.648,12.857,13.609,12.857,14.791z M13.067,14.791c0-1.068,0.881-1.936,1.966-1.936
	c1.084,0,1.969,0.868,1.969,1.936c0,1.069-0.884,1.938-1.969,1.938C13.948,16.729,13.067,15.859,13.067,14.791z"/>
</svg>
