<?xml version="1.0" encoding="utf-8"?>
<!-- Generator: Adobe Illustrator 16.0.4, SVG Export Plug-In . SVG Version: 6.00 Build 0)  -->
<!DOCTYPE svg PUBLIC "-//W3C//DTD SVG 1.1//EN" "http://www.w3.org/Graphics/SVG/1.1/DTD/svg11.dtd">
<svg version="1.1" id="Signature_Templates" xmlns="http://www.w3.org/2000/svg" xmlns:xlink="http://www.w3.org/1999/xlink"
	 x="0px" y="0px" width="914.5px" height="147px" viewBox="-335.536 -54.346 914.5 147"
	 enable-background="new -335.536 -54.346 914.5 147" xml:space="preserve">
<line fill="none" stroke="#07505C" stroke-width="5" stroke-miterlimit="10" x1="212.99" y1="55.352" x2="212.99" y2="-17.662"/>
<g>
	<g>
		<path fill="#8C191C" d="M-64.648,55.355c-12.427,0-13.387-9.43-13.387-12.322c0-3.409,0.915-9.42,8.832-12.333
			c8.17-3.002,9.92-3.346,15.536-5.117v-1.457c0-2.73,0-3.387-0.536-5.076c-1.087-3.242-4.191-5.275-8.415-5.275
			c-6.197,0-8.745,4.734-8.766,4.777l-0.495,0.928l-2.301-1.366l0.229-0.711c1.117-3.568,5.621-9.637,15.463-9.637
			c6.394,0,10.558,1.822,13.136,5.743c1.924,3.11,2.079,7.405,2.079,11.895c0,3.951-0.104,8.344-0.183,11.893
			c-0.063,2.431-0.104,4.544-0.104,5.831c0,3.232,0.511,5.748,3.211,5.748c0.668,0,1.129-0.144,1.502-0.454l0.741-0.635l1.516,1.728
			L-37.1,50.16c-2.48,2.984-4.844,5.099-9.057,5.099c-3.641,0-6.168-1.728-7.021-4.635C-55.193,52.734-58.88,55.355-64.648,55.355z
			 M-53.664,31.247c-6.105,1.84-8.176,2.853-10.067,3.814c-2.629,1.323-3.999,4.03-3.999,7.193c0,2.488,0.884,6.645,6.842,6.645
			c1.965,0,4.774-0.365,7.223-2.129V31.247z"/>
	</g>
	<g>
		<g>
			<path fill="#8C191C" d="M-140.567,55.236c-5.95,0-10.478-0.644-15.128-2.154l-0.668-0.228v-3.326
				c0-4.438-0.098-6.191-0.189-7.597l-0.132-2.308l2.705,0.011l0.062,0.955c0.111,2.072,0.806,4.104,2.066,5.538
				c1.951,2.203,6.444,3.525,10.616,3.525c8.741,0,12.809-3.298,12.809-10.4c0-6.079-3.762-8.623-8.955-12.126l-0.826-0.569
				l-5.49-3.649c-7.623-5.057-11.502-9.098-11.502-17.176c0-3.948,1.493-16.854,20.714-16.854c7.882,0,13.963,1.033,14.217,1.071
				l0.833,0.149l-0.042,0.816c0,0.017-0.065,2.526-0.065,5.239c0,2.147-0.045,4.008,0.037,5.928l0.075,1.44h-2.328l-0.06-0.9
				c-0.17-2.439-0.884-4.201-2.227-5.546c-1.85-1.857-5.938-2.721-10.263-2.721c-10.179,0-11.369,5.239-11.369,9.158
				c0,5.406,2.767,7.233,8.817,11.236l6.949,4.599c5.922,3.944,11.492,7.674,11.492,17.485
				C-118.415,53.453-133.91,55.236-140.567,55.236z"/>
		</g>
		<g>
			<path fill="#8C191C" d="M-95.042,55.53c-7.091,0-11.021-2.535-12.765-8.191c-0.719-2.258-0.719-6.695-0.719-9.352
				c0-7.324,0.067-13.201,0.145-20.006l0.034-3.2h-6.05v-1.799l0.589-0.244c2.822-1.164,3.895-1.956,5.14-2.921
				c4.406-3.416,7.47-9.187,7.516-9.273l1.031-1.748h1.996V9.102h15.618v5.679h-15.618v24.07c0,7.194,1.343,11.3,8.153,11.3
				c3.161,0,5.59-1.236,5.616-1.252l0.939-0.479l0.801,1.859l-0.394,0.446C-83.17,50.918-86.71,55.53-95.042,55.53z"/>
		</g>
		<g>
			<path fill="#8C191C" d="M-32.673,54.95v-2.169l0.883-0.066c0.771-0.068,2.717-0.372,4.064-1.903
				c1.414-1.578,1.507-5.489,1.507-13.301V24.413c0-5.635-0.093-8.056-0.91-9.28c-0.93-1.349-3.006-1.497-4.109-1.579
				c-0.143,0-0.266-0.014-0.384-0.023l-0.871-0.1v-2.612l1.035,0.08c0.184,0.016,0.408,0.016,0.706,0.016
				c1.419,0,4.763-0.188,8.281-0.873c2.706-0.427,4.268-1.362,4.833-1.628l0.526-0.241l0.906,0.536v3.641
				c2.317-1.716,6.973-4.405,13.283-4.405c8.26,0,13.663,3.86,15.204,10.873c0.434,1.734,0.599,5.953,0.599,8.205v13.374
				c0,7.566,0.294,9.692,1.714,11.03c0.714,0.646,2.226,1.187,3.549,1.278l0.908,0.063v2.144l-2.277-0.121
				c-3.298-0.163-6.125-0.323-9.097-0.323c-3.38,0-6.316,0-10.406,0.391l-1.062,0.098v-2.115l0.823-0.111
				c1.777-0.273,3.011-0.788,3.803-1.568c1.487-1.483,1.562-5.009,1.676-8.052c0.023-0.511,0.046-1.033,0.072-1.587
				c0.084-1.719,0.084-5.316,0.084-7.942c0-3.435,0-6.992-0.372-10.489c-0.683-5.927-3.772-8.685-9.737-8.685
				c-4.089,0-6.642,0.935-8.58,1.932v24.078c0,7.565,0.311,9.688,1.725,11.024c0.72,0.646,2.21,1.187,3.548,1.278l0.898,0.068v2.145
				l-2.438-0.137c-3.173-0.163-5.93-0.314-8.817-0.314c-3.315,0-6.425,0-10.524,0.388L-32.673,54.95z"/>
		</g>
		<g>
			<path fill="#8C191C" d="M24.494,54.95v-2.216l0.893-0.071c0.78-0.055,2.731-0.358,4.078-1.89
				c1.424-1.579,1.497-5.451,1.497-13.263V14.79h-5.978v-2.573l0.596-0.244c2.598-1.074,4.197-1.922,5.377-2.844
				c0.004-4.054,0.128-9.305,0.683-12.151c1.813-9.467,7.996-14.264,18.389-14.264c4.47,0,8.716,1.489,11.191,3.494l0.353,0.282
				l0.14,0.978l-4.551,6.323l-1.096,0.014l-0.25-0.574c-1.736-3.892-4.269-5.411-7.724-5.411c-1.437,0-3.396,0.433-4.616,1.646
				c-1.982,1.98-2.317,4.932-2.317,10.775v8.866h10.215v5.683H41.161v25.422c0,6.046,0.199,9,0.99,10.18
				c1.282,1.93,5.172,2.08,6.326,2.08h0.971v2.448l-1.022-0.062c-5.038-0.266-8.8-0.391-11.513-0.391c-3.4,0-7.265,0-11.37,0.391
				L24.494,54.95z"/>
		</g>
		<g>
			<path fill="#8C191C" d="M77.217,55.727c-13.984,0-22.342-8.715-22.342-23.309c0-11.336,6.096-24.567,23.312-24.567
				c13.993,0,22.35,8.72,22.35,23.307C100.537,42.503,94.427,55.727,77.217,55.727z M77.8,13.141c-2.711,0-4.896,0.698-6.495,2.088
				c-3.686,3.076-5.55,8.707-5.55,16.694c0,3.089,0.572,18.507,11.861,18.507c2.69,0,4.88-0.709,6.493-2.08
				c3.677-3.087,5.541-8.712,5.541-16.703C89.649,28.552,89.072,13.141,77.8,13.141z"/>
		</g>
		<g>
			<path fill="#8C191C" d="M104.96,54.95v-2.317l0.894-0.077c0.775-0.049,2.73-0.353,4.068-1.885
				c1.429-1.582,1.487-5.359,1.487-13.16V24.404c0-5.63-0.077-8.053-0.885-9.278c-0.938-1.352-3.002-1.5-4.121-1.572
				c-0.127-0.009-0.27-0.023-0.356-0.031l-0.894-0.092v-2.772l0.98,0.015c0.174,0.018,0.475,0.022,0.756,0.022
				c1.42,0,4.768-0.184,8.281-0.875c2.226-0.367,4.146-0.939,4.91-1.301l0.536-0.24l0.802,0.423v3.989
				c2.2-2.074,5.683-4.279,10.604-4.279c3.202,0,5.795,0.862,7.674,2.558l0.312,0.296v1.439l-3.857,7.071h-1.863l-0.281-0.444
				c-1.088-1.681-3.225-3.686-7.388-3.686c-1.902,0-3.545,0.465-5.005,1.45v23.101c0,6.055,0.203,8.908,0.993,10.092
				c1.293,1.916,5.176,2.07,6.328,2.07h0.958v2.547l-1.01-0.074c-5.039-0.256-8.812-0.382-11.512-0.382
				c-3.401,0-7.268,0-11.367,0.382L104.96,54.95z"/>
		</g>
		<g>
			<path fill="#8C191C" d="M177.015,55.597l-1.225-0.411v-3.867c-2.267,1.68-6.791,4.298-12.808,4.298
				c-12.582,0-20.729-8.716-20.729-22.232c0-4.495,0.884-8.758,2.51-12.346c3.836-8.318,11.822-13.09,21.876-13.09
				c3.679,0,6.985,0.455,8.957,0.888V-0.91c0-5.717-0.083-8.764-0.898-9.988c-0.933-1.331-2.94-1.487-4.021-1.562
				c-0.146-0.012-0.277-0.021-0.368-0.036l-0.878-0.086l0.202-2.053h0.971c0.212,0,5.515-0.442,9.822-1.287
				c1.81-0.29,3.597-0.703,4.534-1.043l0.447-0.165l0.797,0.471l-0.038,0.446c-0.31,3.776-0.348,11.852-0.348,17.9v37.372
				c0,5.583,0.082,9.044,0.88,10.153c0.946,1.358,2.949,1.599,4.03,1.688c0.146,0,0.277,0.003,0.377,0.023l0.871,0.033v2.467h-0.963
				c-1.019,0-5.021,0.279-8.903,0.942c-2.228,0.357-3.859,0.686-4.664,1.058L177.015,55.597z M166.436,13.431
				c-8.933,0-13.293,6.117-13.293,18.695c0,5.089,1.448,16.943,14.758,16.943h0.424c1.617,0,4.636-0.246,7.272-1.873V16.495
				C174.843,15.766,172.052,13.431,166.436,13.431z"/>
		</g>
	</g>
</g>
<g>
	<g enable-background="new    ">
		<path fill="#07505C" d="M240.14,6.798h6.057v42.715h20.951v5.186H240.14V6.798z"/>
		<path fill="#07505C" d="M279.268,6.798h6.063v47.901h-6.063V6.798z"/>
		<path fill="#07505C" d="M302.131,6.798h14.226c2.438,0,4.664,0.216,6.688,0.655c2.019,0.439,3.746,1.122,5.176,2.043
			c1.439,0.929,2.555,2.134,3.371,3.613c0.797,1.493,1.202,3.278,1.202,5.369c0,2.388-0.681,4.535-2.042,6.466
			c-1.365,1.918-3.463,3.24-6.287,3.979v0.29c3.51,0.537,6.229,1.753,8.175,3.65c1.95,1.896,2.93,4.501,2.93,7.817
			c0,2.332-0.447,4.375-1.312,6.122c-0.879,1.759-2.124,3.222-3.728,4.396c-1.603,1.153-3.535,2.041-5.77,2.621
			c-2.246,0.585-4.699,0.879-7.384,0.879h-15.244V6.798z M315.261,27.248c4.136,0,7.098-0.715,8.876-2.125
			c1.775-1.415,2.664-3.457,2.664-6.131c0-2.63-0.941-4.518-2.811-5.657c-1.867-1.145-4.685-1.715-8.43-1.715h-7.374v15.628H315.261
			z M316.506,49.871c4.139,0,7.354-0.764,9.643-2.293c2.284-1.532,3.438-3.926,3.438-7.2c0-2.961-1.119-5.138-3.37-6.528
			c-2.233-1.391-5.48-2.077-9.71-2.077h-8.319v18.099H316.506z"/>
		<path fill="#07505C" d="M374.995,54.699L363.46,34.467h-8.7v20.232h-6.056V6.798h14.967c2.431,0,4.689,0.232,6.752,0.696
			c2.071,0.459,3.848,1.227,5.33,2.299c1.477,1.071,2.643,2.459,3.472,4.159c0.827,1.706,1.246,3.799,1.246,6.28
			c0,3.747-0.979,6.74-2.922,8.981c-1.95,2.241-4.553,3.772-7.812,4.602l12.111,20.884H374.995z M354.76,29.504h8.034
			c3.745,0,6.629-0.759,8.618-2.304c2-1.53,3.003-3.853,3.003-6.968c0-3.165-1.003-5.376-3.003-6.642
			c-1.989-1.268-4.873-1.9-8.618-1.9h-8.034V29.504z"/>
		<path fill="#07505C" d="M415.951,40.092H398.5l-4.606,14.607h-6.203l16.225-47.901h6.852l16.215,47.901h-6.505L415.951,40.092z
			 M414.42,35.201l-2.268-7.302c-0.875-2.673-1.706-5.345-2.477-8.001c-0.778-2.646-1.556-5.359-2.332-8.136h-0.295
			c-0.735,2.777-1.494,5.489-2.266,8.136c-0.777,2.656-1.604,5.328-2.482,8.001l-2.27,7.302H414.42z"/>
		<path fill="#07505C" d="M463.698,54.699l-11.537-20.232h-8.69v20.232h-6.056V6.798h14.97c2.428,0,4.688,0.232,6.75,0.696
			c2.069,0.459,3.848,1.227,5.331,2.299c1.479,1.071,2.64,2.459,3.472,4.159c0.824,1.706,1.235,3.799,1.235,6.28
			c0,3.747-0.972,6.74-2.922,8.981s-4.552,3.772-7.812,4.602l12.12,20.884H463.698z M443.471,29.504h8.034
			c3.746,0,6.62-0.759,8.609-2.304c2-1.53,2.994-3.853,2.994-6.968c0-3.165-0.994-5.376-2.994-6.642
			c-1.989-1.268-4.863-1.9-8.609-1.9h-8.034V29.504z"/>
		<path fill="#07505C" d="M483.487,6.798h6.055v47.901h-6.055V6.798z"/>
		<path fill="#07505C" d="M506.339,6.798h27.591v5.112h-21.526v15.039h18.176v5.19h-18.176v17.374h22.261v5.186h-28.325V6.798z"/>
		<path fill="#07505C" d="M548.615,44.255c1.705,1.802,3.713,3.249,6.021,4.346c2.308,1.092,4.709,1.638,7.191,1.638
			c3.168,0,5.625-0.71,7.372-2.148c1.754-1.439,2.632-3.324,2.632-5.66c0-1.212-0.202-2.25-0.623-3.105
			c-0.404-0.85-0.971-1.572-1.671-2.188c-0.713-0.612-1.555-1.158-2.525-1.65c-0.979-0.478-2.017-0.989-3.143-1.521l-6.852-2.999
			c-1.125-0.483-2.266-1.072-3.443-1.753c-1.163-0.681-2.217-1.506-3.135-2.486c-0.927-0.972-1.675-2.129-2.265-3.464
			c-0.583-1.34-0.878-2.886-0.878-4.64c0-1.795,0.376-3.481,1.135-5.033c0.754-1.558,1.797-2.905,3.133-4.054
			c1.338-1.149,2.922-2.033,4.748-2.666c1.829-0.632,3.839-0.949,6.026-0.949c2.867,0,5.523,0.545,7.953,1.637
			c2.427,1.104,4.513,2.523,6.21,4.281l-3.28,3.935c-1.458-1.41-3.085-2.518-4.848-3.324c-1.792-0.797-3.8-1.2-6.035-1.2
			c-2.677,0-4.828,0.618-6.467,1.859c-1.621,1.246-2.437,2.962-2.437,5.152c0,1.164,0.221,2.149,0.68,2.95
			c0.474,0.808,1.096,1.517,1.882,2.126c0.773,0.607,1.624,1.148,2.551,1.606c0.922,0.459,1.869,0.885,2.84,1.281l6.788,2.91
			c1.371,0.595,2.656,1.262,3.873,2.01c1.212,0.754,2.264,1.631,3.143,2.632c0.87,0.999,1.574,2.163,2.088,3.506
			c0.505,1.332,0.752,2.883,0.752,4.639c0,1.894-0.367,3.67-1.125,5.321c-0.753,1.656-1.836,3.101-3.255,4.346
			c-1.41,1.247-3.113,2.217-5.107,2.926c-2,0.701-4.256,1.054-6.79,1.054c-3.355,0-6.46-0.632-9.343-1.901
			c-2.878-1.256-5.35-2.99-7.452-5.177L548.615,44.255z"/>
	</g>
</g>
<path fill="#8C191C" d="M-260.761-52.883c-40.321,0-73.13,32.312-73.13,72.004c0,39.688,32.809,71.996,73.13,71.996
	c40.338,0,73.145-32.309,73.145-71.996C-187.617-20.571-220.423-52.883-260.761-52.883z M-260.761,83.429
	c-36.062,0-65.319-28.802-65.319-64.309c0-35.503,29.257-64.303,65.319-64.303c36.083,0,65.337,28.8,65.337,64.303
	C-195.425,54.628-224.679,83.429-260.761,83.429z"/>
<path fill="#D1C194" d="M-260.754-47.646c37.472,0,67.845,29.894,67.845,66.767c0,36.883-30.373,66.766-67.845,66.766
	c-37.467,0-67.842-29.883-67.842-66.766C-328.596-17.752-298.221-47.646-260.754-47.646z"/>
<path fill="#8C191C" d="M-208.291,48.944c-3.793-4.795-5.93-10.716-5.93-16.861c0-1.574,0.126-3.144,0.413-4.729
	c0.006,0,0.022-0.096,0.022-0.096c1.402-7.779,6.132-14.4,12.71-18.463c-7.607-1.613-14.348-6.246-18.395-13.139
	c-2.496-4.254-3.723-8.989-3.723-13.718c0-2.842,0.451-5.671,1.326-8.393c-6.852,3.543-15.031,4.206-22.604,1.509
	c-7.534-2.713-13.34-8.443-16.271-15.529c-2.927,7.086-8.754,12.819-16.335,15.55c-7.516,2.69-15.677,2.014-22.531-1.53
	c0.874,2.721,1.326,5.529,1.326,8.37c0,4.742-1.246,9.52-3.751,13.83c-4.03,6.833-10.78,11.446-18.374,13.054
	c6.51,4.025,11.218,10.552,12.686,18.26c0,0,0.084,0.53,0.089,0.56c0.249,1.482,0.374,2.97,0.374,4.463
	c0,6.146-2.137,12.076-5.922,16.861c7.668-1.033,15.592,1.076,21.729,6.098l0.217,0.188c0,0,0.148,0.125,0.225,0.188
	c5.91,5.058,9.263,12.279,9.556,19.773c5.218-5.663,12.673-9.097,20.761-9.111c8.01,0,15.449,3.424,20.673,9.092
	c0.29-7.633,3.774-14.977,9.964-20.097C-223.907,50.025-215.975,47.911-208.291,48.944z"/>
<path fill="#D1C194" d="M-260.701-24.799c24.641,0,44.619,19.659,44.619,43.92c0,24.26-19.978,43.922-44.619,43.922
	c-24.648,0-44.621-19.662-44.621-43.922C-305.323-5.14-285.349-24.799-260.701-24.799z"/>
<g>
	<g>
		<g>
			<g>
				<path fill="#07505C" d="M-309.586,30.793c0-0.338-0.073-0.661-0.089-1.01c-6.227,6.151-10.227,13.414-10.227,18.586
					c0,0.864,0.144,1.621,0.373,2.337C-313.648,46.236-309.586,38.113-309.586,30.793z M-318.008,53.086
					c3.728,3.888,13.591,4.812,23.494,2.255C-301.012,51.237-310.861,50.268-318.008,53.086z M-226.956,55.336
					c9.906,2.562,19.766,1.638,23.503-2.254C-210.602,50.268-220.452,51.237-226.956,55.336z M-211.881,30.778
					c0,7.335,4.056,15.458,9.939,19.948c0.225-0.706,0.375-1.493,0.375-2.343c0-5.176-3.998-12.458-10.232-18.591
					C-211.814,30.121-211.881,30.435-211.881,30.778z M-245.771-27.994c-2.711-9.944-8.46-18.102-13.629-19.353
					C-258.323-39.602-252.536-31.454-245.771-27.994z M-275.689-27.994c6.758-3.46,12.545-11.614,13.622-19.353
					C-267.23-46.096-272.986-37.939-275.689-27.994z M-291.276,61.961c0,8.66,2.566,16.272,6.487,18.885
					c0.313-1.488,0.62-2.97,0.62-4.548c0-6.528-2.672-13.481-6.871-17.973C-291.131,59.537-291.276,60.769-291.276,61.961z
					 M-211.022,25.506c9.551-4.356,16.611-11.21,16.915-16.45C-201.628,11.401-208.745,18.394-211.022,25.506z M-279.849-26.514
					c-8.338-5.688-17.878-8.07-22.707-5.688C-296.812-27.122-287.416-24.785-279.849-26.514z M-301.044-16.953
					c0-4.889-1.292-9.795-3.68-13.566c-1.378,1.794-2.1,4.517-2.1,7.823c0,4.531,1.336,10.029,3.788,15.292
					C-301.82-10.297-301.044-13.536-301.044-16.953z M-282.198,81.76c5.293,0.641,13.341-4.902,19.309-13.342
					C-270.482,69.354-278.529,74.879-282.198,81.76z M-194.602,6.524c-2.086-4.879-11.279-9.131-21.736-10.036
					C-211.696,2.521-202.499,6.816-194.602,6.524z M-327.363,9.056c0.288,5.228,7.356,12.098,16.917,16.453
					C-312.725,18.383-319.84,11.401-327.363,9.056z M-237.306,76.267c0,1.608,0.302,3.09,0.623,4.578
					c3.922-2.612,6.495-10.225,6.495-18.86c0-1.208-0.146-2.448-0.253-3.66C-234.646,62.816-237.306,69.769-237.306,76.267z
					 M-218.906-32.202c-4.848-2.385-14.373,0-22.702,5.683C-234.124-24.826-224.59-27.201-218.906-32.202z M-305.122-3.506
					c-10.447,0.898-19.651,5.141-21.738,10.025C-318.97,6.803-309.786,2.521-305.122-3.506z M-258.593,68.418
					c5.972,8.439,14.024,13.982,19.315,13.342C-242.941,74.873-251.008,69.329-258.593,68.418z M-218.417-7.405
					c2.436-5.263,3.781-10.746,3.781-15.275c0-3.308-0.729-6.034-2.108-7.815c-2.385,3.759-3.679,8.672-3.679,13.555
					C-220.423-13.536-219.651-10.287-218.417-7.405z"/>
			</g>
		</g>
		<g>
			<path fill="#07505C" d="M-278.568-0.355c-7.144-2.067-14.273-2.943-20.625-2.755l0,0c2.989,5.719,7.371,11.579,12.864,16.833
				l20.919,2.711L-278.568-0.355z"/>
			<path fill="#07505C" d="M-287.099,15.49c-6.842,2.941-12.895,6.785-17.668,10.957v0.011c6.022,2.471,13.195,4.19,20.824,4.744
				l17.883-11.188L-287.099,15.49z"/>
			<path fill="#07505C" d="M-283.352,33.027c-3.325,6.592-5.463,13.377-6.369,19.596c0,0,0,0.004,0.005,0.004
				c6.234-1.921,12.895-5.155,19.113-9.594l6.402-19.884L-283.352,33.027z"/>
			<path fill="#07505C" d="M-234.402,13.591c5.295-5.005,9.563-10.572,12.545-16.024v-0.008c-6.599-0.316-14.066,0.51-21.524,2.627
				l-12.701,16.259L-234.402,13.591z"/>
			<path fill="#07505C" d="M-244.231-1.716c0.804-7.207,0.423-14.18-0.84-20.252l-0.007-0.006
				c-5.247,3.93-10.397,9.248-14.721,15.557l0.906,20.523L-244.231-1.716z"/>
			<path fill="#07505C" d="M-261.694-7.173c-4.108-6.055-8.954-11.197-13.923-15.061c0,0,0,0-0.005,0
				c-1.441,6.297-1.915,13.579-1.142,21.099l14.194,15.251L-261.694-7.173z"/>
			<path fill="#07505C" d="M-216.814,27.21c-4.872-4.43-11.13-8.513-18.238-11.603l-20.37,4.414l18.484,11.551
				c7.344-0.488,14.264-2.074,20.119-4.356V27.21H-216.814z"/>
			<path fill="#07505C" d="M-250.672,43.635c5.968,4.327,12.334,7.528,18.354,9.494l0,0c-0.758-5.751-5.234-17.195-6.584-20.546
				l-18.368-9.43L-250.672,43.635z"/>
			<path fill="#07505C" d="M-269.004,44.167c1.743,7.143,4.546,13.656,7.883,18.982h0.002c3.559-5.451,6.555-12.158,8.418-19.533
				l-8.039-19.225L-269.004,44.167z"/>
		</g>
	</g>
</g>
<g>
	<g>
		<path fill="#8C191C" d="M-309.62,19.121c0,26.554,21.944,48.151,48.921,48.151c26.966,0,48.91-21.598,48.91-48.151
			c0-26.55-21.944-48.153-48.91-48.153C-287.674-29.032-309.62-7.429-309.62,19.121z M-307.563,19.121
			c0-25.438,21.015-46.129,46.864-46.129c25.836,0,46.865,20.691,46.865,46.129c0,25.444-21.028,46.143-46.865,46.143
			C-286.549,65.255-307.563,44.565-307.563,19.121z"/>
		<path fill="#8C191C" d="M-250.643,19.097c0,5.501-4.521,9.938-10.096,9.938c-5.554,0-10.079-4.438-10.079-9.938
			c0-5.482,4.525-9.917,10.079-9.917C-255.164,9.18-250.643,13.615-250.643,19.097z"/>
	</g>
</g>
<path fill="#D1C194" d="M-271.314,19.107c0,5.757,4.752,10.444,10.596,10.444c5.845,0,10.599-4.688,10.599-10.444
	c0-5.747-4.753-10.422-10.599-10.422C-266.561,8.685-271.314,13.361-271.314,19.107z M-270.288,19.107
	c0-5.195,4.292-9.418,9.57-9.418s9.585,4.223,9.585,9.418c0,5.206-4.302,9.438-9.585,9.438
	C-265.996,28.546-270.288,24.313-270.288,19.107z"/>
</svg>
