<?xml version="1.0" encoding="utf-8"?>
<!-- Generator: Adobe Illustrator 16.0.4, SVG Export Plug-In . SVG Version: 6.00 Build 0)  -->
<!DOCTYPE svg PUBLIC "-//W3C//DTD SVG 1.1//EN" "http://www.w3.org/Graphics/SVG/1.1/DTD/svg11.dtd">
<svg version="1.1" id="Signature_Templates" xmlns="http://www.w3.org/2000/svg" xmlns:xlink="http://www.w3.org/1999/xlink"
   x="0px" y="0px" width="200px" height="40px" viewBox="-5.536 -2.846 200 40" enable-background="new -5.536 -2.846 200 40"
   xml:space="preserve">
<line fill="#8B191B" stroke="#FFFFFF" stroke-miterlimit="10" x1="112.502" y1="25.271" x2="112.502" y2="10.505"/>
<g>
  <g>
    <path fill="#FFFFFF" d="M56.352,25.272c-2.513,0-2.708-1.907-2.708-2.492c0-0.689,0.185-1.905,1.786-2.494
      c1.652-0.607,2.006-0.677,3.142-1.035v-0.295c0-0.552,0-0.685-0.108-1.026c-0.22-0.656-0.848-1.067-1.702-1.067
      c-1.253,0-1.769,0.958-1.773,0.966l-0.1,0.188l-0.465-0.276l0.046-0.144c0.226-0.722,1.137-1.949,3.127-1.949
      c1.293,0,2.135,0.369,2.657,1.162c0.389,0.629,0.42,1.498,0.42,2.406c0,0.799-0.021,1.688-0.037,2.405
      c-0.013,0.491-0.021,0.919-0.021,1.179c0,0.654,0.104,1.163,0.649,1.163c0.135,0,0.229-0.029,0.304-0.092l0.15-0.129l0.307,0.35
      l-0.104,0.131c-0.501,0.604-0.979,1.031-1.832,1.031c-0.736,0-1.248-0.35-1.42-0.938C58.264,24.742,57.518,25.272,56.352,25.272z
       M58.573,20.396c-1.235,0.372-1.654,0.577-2.036,0.771c-0.532,0.268-0.809,0.815-0.809,1.455c0,0.503,0.179,1.344,1.384,1.344
      c0.397,0,0.965-0.074,1.461-0.431V20.396z"/>
  </g>
  <g>
    <g>
      <path fill="#FFFFFF" d="M40.998,25.248c-1.203,0-2.119-0.13-3.06-0.436l-0.135-0.046v-0.673c0-0.897-0.02-1.252-0.038-1.536
        l-0.027-0.467l0.547,0.002l0.013,0.193c0.022,0.419,0.163,0.83,0.418,1.12c0.395,0.445,1.303,0.713,2.147,0.713
        c1.768,0,2.59-0.667,2.59-2.104c0-1.229-0.761-1.744-1.811-2.452l-0.167-0.115l-1.11-0.738c-1.542-1.022-2.326-1.84-2.326-3.474
        c0-0.798,0.302-3.409,4.189-3.409c1.594,0,2.824,0.209,2.875,0.217l0.168,0.03l-0.008,0.165c0,0.003-0.013,0.511-0.013,1.06
        c0,0.434-0.009,0.811,0.007,1.199l0.015,0.292h-0.471l-0.012-0.182c-0.034-0.493-0.179-0.85-0.45-1.122
        c-0.374-0.375-1.201-0.55-2.076-0.55c-2.059,0-2.299,1.06-2.299,1.852c0,1.093,0.56,1.463,1.783,2.272l1.405,0.93
        c1.198,0.798,2.324,1.552,2.324,3.536C45.478,24.887,42.344,25.248,40.998,25.248z"/>
    </g>
    <g>
      <path fill="#FFFFFF" d="M50.205,25.307c-1.434,0-2.229-0.513-2.582-1.656c-0.146-0.457-0.146-1.354-0.146-1.892
        c0-1.481,0.014-2.67,0.029-4.046l0.007-0.647H46.29v-0.364l0.119-0.049c0.571-0.235,0.788-0.396,1.04-0.591
        c0.891-0.691,1.511-1.858,1.52-1.875l0.208-0.354h0.404v2.084h3.159v1.148h-3.159v4.868c0,1.455,0.271,2.285,1.649,2.285
        c0.639,0,1.13-0.25,1.136-0.253l0.19-0.097l0.162,0.376l-0.08,0.09C52.606,24.375,51.89,25.307,50.205,25.307z"/>
    </g>
    <g>
      <path fill="#FFFFFF" d="M62.819,25.19v-0.438l0.179-0.014c0.156-0.014,0.549-0.075,0.822-0.385
        c0.286-0.319,0.305-1.11,0.305-2.69v-2.648c0-1.14-0.019-1.629-0.184-1.877c-0.188-0.273-0.608-0.303-0.831-0.319
        c-0.029,0-0.054-0.003-0.078-0.005l-0.176-0.02v-0.528l0.209,0.016c0.037,0.003,0.083,0.003,0.143,0.003
        c0.287,0,0.963-0.038,1.675-0.177c0.547-0.086,0.863-0.275,0.978-0.329l0.106-0.049l0.183,0.108v0.736
        c0.469-0.347,1.41-0.891,2.687-0.891c1.67,0,2.763,0.781,3.075,2.199c0.088,0.351,0.121,1.204,0.121,1.659v2.705
        c0,1.53,0.06,1.96,0.347,2.23c0.145,0.131,0.45,0.24,0.718,0.259l0.184,0.013v0.434l-0.46-0.024
        c-0.667-0.033-1.239-0.065-1.84-0.065c-0.684,0-1.277,0-2.104,0.079l-0.215,0.02v-0.428l0.167-0.022
        c0.359-0.056,0.609-0.159,0.769-0.317c0.301-0.3,0.316-1.013,0.339-1.628c0.005-0.104,0.009-0.209,0.015-0.321
        c0.017-0.348,0.017-1.075,0.017-1.606c0-0.694,0-1.414-0.075-2.121c-0.138-1.199-0.763-1.756-1.969-1.756
        c-0.827,0-1.343,0.189-1.735,0.391v4.87c0,1.53,0.063,1.959,0.349,2.229c0.146,0.131,0.447,0.24,0.718,0.259l0.182,0.014v0.434
        l-0.493-0.027c-0.642-0.033-1.199-0.063-1.783-0.063c-0.67,0-1.299,0-2.128,0.078L62.819,25.19z"/>
    </g>
    <g>
      <path fill="#FFFFFF" d="M74.38,25.19v-0.448l0.181-0.015c0.158-0.011,0.552-0.072,0.825-0.382
        c0.288-0.319,0.303-1.103,0.303-2.683v-4.595h-1.209v-0.521l0.121-0.049c0.525-0.217,0.849-0.389,1.087-0.575
        c0.001-0.82,0.026-1.882,0.138-2.458c0.367-1.915,1.617-2.885,3.719-2.885c0.904,0,1.763,0.301,2.263,0.707l0.071,0.057
        l0.028,0.198l-0.92,1.279l-0.222,0.003l-0.051-0.116c-0.351-0.787-0.863-1.094-1.562-1.094c-0.291,0-0.687,0.087-0.934,0.333
        c-0.401,0.4-0.469,0.998-0.469,2.179v1.793h2.066v1.149h-2.065v5.142c0,1.223,0.04,1.82,0.2,2.059
        c0.259,0.391,1.046,0.421,1.279,0.421h0.196v0.495l-0.207-0.013c-1.019-0.054-1.78-0.079-2.329-0.079
        c-0.688,0-1.469,0-2.299,0.079L74.38,25.19z"/>
    </g>
    <g>
      <path fill="#FFFFFF" d="M85.043,25.347c-2.828,0-4.519-1.763-4.519-4.714c0-2.293,1.233-4.969,4.715-4.969
        c2.83,0,4.52,1.764,4.52,4.714C89.76,22.673,88.524,25.347,85.043,25.347z M85.161,16.735c-0.548,0-0.99,0.141-1.313,0.422
        c-0.746,0.622-1.123,1.761-1.123,3.376c0,0.625,0.116,3.743,2.399,3.743c0.544,0,0.987-0.144,1.313-0.421
        c0.744-0.624,1.121-1.762,1.121-3.378C87.557,19.851,87.441,16.735,85.161,16.735z"/>
    </g>
    <g>
      <path fill="#FFFFFF" d="M90.654,25.19v-0.469l0.181-0.016c0.157-0.01,0.552-0.071,0.823-0.381
        c0.289-0.32,0.301-1.084,0.301-2.662v-2.65c0-1.139-0.016-1.628-0.179-1.876c-0.19-0.273-0.607-0.303-0.833-0.318
        c-0.026-0.002-0.055-0.005-0.072-0.006l-0.181-0.019v-0.561l0.198,0.003c0.035,0.003,0.096,0.004,0.153,0.004
        c0.287,0,0.964-0.037,1.675-0.177c0.45-0.074,0.838-0.19,0.993-0.263l0.108-0.048l0.162,0.085v0.807
        c0.445-0.419,1.149-0.865,2.145-0.865c0.647,0,1.172,0.174,1.552,0.517l0.063,0.06v0.291l-0.78,1.43h-0.377l-0.057-0.09
        c-0.22-0.34-0.652-0.746-1.494-0.746c-0.385,0-0.717,0.094-1.012,0.293v4.672c0,1.225,0.041,1.802,0.201,2.041
        c0.261,0.388,1.046,0.419,1.28,0.419h0.193v0.515l-0.204-0.015c-1.019-0.052-1.782-0.077-2.328-0.077
        c-0.688,0-1.47,0-2.299,0.077L90.654,25.19z"/>
    </g>
    <g>
      <path fill="#FFFFFF" d="M105.227,25.321l-0.248-0.083v-0.782c-0.458,0.34-1.373,0.869-2.59,0.869
        c-2.545,0-4.192-1.763-4.192-4.496c0-0.909,0.179-1.771,0.508-2.497c0.775-1.682,2.391-2.647,4.424-2.647
        c0.744,0,1.413,0.092,1.812,0.18v-1.971c0-1.156-0.017-1.772-0.182-2.02c-0.188-0.269-0.595-0.301-0.813-0.316
        c-0.029-0.002-0.056-0.004-0.074-0.007l-0.178-0.018l0.041-0.415h0.196c0.043,0,1.115-0.089,1.986-0.26
        c0.366-0.059,0.728-0.142,0.917-0.211l0.091-0.033l0.161,0.095l-0.008,0.09c-0.062,0.764-0.07,2.397-0.07,3.62v7.558
        c0,1.129,0.017,1.829,0.178,2.054c0.191,0.274,0.597,0.323,0.815,0.341c0.029,0,0.056,0.001,0.076,0.005l0.176,0.007v0.499
        h-0.194c-0.206,0-1.016,0.057-1.801,0.19c-0.45,0.072-0.78,0.139-0.943,0.214L105.227,25.321z M103.087,16.793
        c-1.807,0-2.688,1.237-2.688,3.781c0,1.029,0.293,3.427,2.984,3.427h0.086c0.327,0,0.938-0.05,1.471-0.379v-6.209
        C104.787,17.265,104.223,16.793,103.087,16.793z"/>
    </g>
  </g>
</g>
<g>
  <g enable-background="new    ">
    <path fill="#FFFFFF" d="M117.993,15.452h1.225v8.639h4.237v1.049h-5.462V15.452z"/>
    <path fill="#FFFFFF" d="M125.906,15.452h1.227v9.688h-1.227V15.452z"/>
    <path fill="#FFFFFF" d="M130.531,15.452h2.877c0.493,0,0.943,0.043,1.353,0.132c0.408,0.089,0.758,0.227,1.047,0.413
      c0.291,0.188,0.517,0.432,0.682,0.731c0.161,0.302,0.243,0.663,0.243,1.086c0,0.482-0.138,0.917-0.413,1.308
      c-0.276,0.388-0.7,0.655-1.271,0.805v0.059c0.71,0.108,1.26,0.354,1.653,0.738c0.395,0.384,0.593,0.91,0.593,1.581
      c0,0.472-0.091,0.885-0.266,1.238c-0.178,0.355-0.43,0.651-0.754,0.889c-0.324,0.233-0.715,0.413-1.167,0.53
      c-0.454,0.118-0.95,0.178-1.493,0.178h-3.083V15.452z M133.186,19.588c0.837,0,1.436-0.145,1.795-0.43
      c0.359-0.286,0.539-0.699,0.539-1.24c0-0.532-0.19-0.914-0.568-1.144c-0.378-0.231-0.947-0.347-1.705-0.347h-1.491v3.161H133.186z
       M133.438,24.163c0.837,0,1.487-0.154,1.95-0.464c0.462-0.31,0.695-0.794,0.695-1.456c0-0.599-0.227-1.039-0.682-1.32
      c-0.452-0.281-1.108-0.42-1.964-0.42h-1.683v3.66H133.438z"/>
    <path fill="#FFFFFF" d="M145.267,25.139l-2.333-4.092h-1.76v4.092h-1.225v-9.688h3.027c0.491,0,0.948,0.047,1.365,0.141
      c0.419,0.093,0.778,0.248,1.078,0.465c0.299,0.217,0.534,0.498,0.702,0.841c0.167,0.345,0.252,0.768,0.252,1.27
      c0,0.758-0.198,1.363-0.591,1.816c-0.395,0.453-0.921,0.763-1.58,0.931l2.449,4.224H145.267z M141.174,20.044h1.625
      c0.758,0,1.341-0.153,1.743-0.466c0.404-0.31,0.607-0.779,0.607-1.409c0-0.64-0.203-1.087-0.607-1.343
      c-0.402-0.256-0.985-0.384-1.743-0.384h-1.625V20.044z"/>
    <path fill="#FFFFFF" d="M153.55,22.185h-3.529l-0.932,2.954h-1.255l3.281-9.688h1.386l3.279,9.688h-1.315L153.55,22.185z
       M153.24,21.196l-0.459-1.477c-0.177-0.541-0.345-1.081-0.501-1.618c-0.157-0.536-0.314-1.084-0.472-1.646h-0.06
      c-0.148,0.562-0.302,1.11-0.458,1.646c-0.157,0.537-0.324,1.077-0.502,1.618l-0.459,1.477H153.24z"/>
    <path fill="#FFFFFF" d="M163.206,25.139l-2.333-4.092h-1.758v4.092h-1.225v-9.688h3.027c0.491,0,0.948,0.047,1.365,0.141
      c0.419,0.093,0.778,0.248,1.078,0.465c0.299,0.217,0.534,0.498,0.702,0.841c0.167,0.345,0.25,0.768,0.25,1.27
      c0,0.758-0.196,1.363-0.591,1.816s-0.921,0.763-1.58,0.931l2.451,4.224H163.206z M159.115,20.044h1.625
      c0.758,0,1.339-0.153,1.741-0.466c0.404-0.31,0.605-0.779,0.605-1.409c0-0.64-0.201-1.087-0.605-1.343
      c-0.402-0.256-0.983-0.384-1.741-0.384h-1.625V20.044z"/>
    <path fill="#FFFFFF" d="M167.208,15.452h1.225v9.688h-1.225V15.452z"/>
    <path fill="#FFFFFF" d="M171.83,15.452h5.58v1.034h-4.354v3.042h3.676v1.05h-3.676v3.514h4.502v1.049h-5.729V15.452z"/>
    <path fill="#FFFFFF" d="M180.38,23.027c0.345,0.364,0.751,0.657,1.218,0.879c0.467,0.221,0.952,0.331,1.454,0.331
      c0.641,0,1.138-0.144,1.491-0.435c0.354-0.291,0.532-0.672,0.532-1.145c0-0.245-0.041-0.455-0.126-0.628
      c-0.082-0.172-0.196-0.318-0.338-0.442c-0.145-0.124-0.314-0.234-0.511-0.334c-0.198-0.097-0.408-0.2-0.636-0.308l-1.386-0.606
      c-0.228-0.098-0.458-0.217-0.696-0.354c-0.235-0.138-0.448-0.305-0.634-0.503c-0.188-0.196-0.339-0.431-0.458-0.7
      c-0.118-0.271-0.178-0.584-0.178-0.938c0-0.363,0.076-0.704,0.229-1.018c0.152-0.315,0.363-0.587,0.634-0.82
      s0.591-0.411,0.96-0.539c0.37-0.128,0.776-0.192,1.219-0.192c0.58,0,1.117,0.11,1.608,0.331c0.491,0.223,0.913,0.51,1.256,0.866
      l-0.663,0.796c-0.295-0.285-0.624-0.509-0.98-0.672c-0.362-0.161-0.769-0.243-1.221-0.243c-0.541,0-0.977,0.125-1.308,0.376
      c-0.328,0.252-0.493,0.599-0.493,1.042c0,0.235,0.045,0.435,0.138,0.597c0.096,0.163,0.222,0.307,0.381,0.43
      c0.156,0.123,0.328,0.232,0.516,0.325c0.187,0.093,0.378,0.179,0.574,0.259l1.373,0.589c0.277,0.12,0.537,0.255,0.783,0.406
      c0.245,0.152,0.458,0.33,0.636,0.532c0.176,0.202,0.318,0.438,0.422,0.709c0.103,0.27,0.152,0.583,0.152,0.938
      c0,0.383-0.074,0.742-0.228,1.076c-0.152,0.335-0.371,0.627-0.658,0.879c-0.285,0.252-0.63,0.448-1.033,0.592
      c-0.404,0.142-0.86,0.213-1.373,0.213c-0.679,0-1.307-0.128-1.89-0.385c-0.582-0.254-1.082-0.604-1.507-1.047L180.38,23.027z"/>
  </g>
</g>
<path fill="#8B191B" d="M16.689,3.382c-8.155,0-14.79,6.535-14.79,14.562c0,8.026,6.635,14.561,14.79,14.561
  c8.158,0,14.793-6.534,14.793-14.561C31.482,9.917,24.847,3.382,16.689,3.382z M16.689,30.95c-7.293,0-13.21-5.825-13.21-13.006
  c0-7.18,5.917-13.005,13.21-13.005c7.297,0,13.214,5.825,13.214,13.005C29.903,25.125,23.987,30.95,16.689,30.95z"/>
<ellipse fill="#D1C194" cx="16.691" cy="17.944" rx="13.721" ry="13.503"/>
<path fill="#8B191B" d="M27.301,23.975c-0.767-0.97-1.199-2.167-1.199-3.41c0-0.318,0.025-0.636,0.083-0.956
  c0.001,0,0.004-0.02,0.004-0.02c0.284-1.573,1.24-2.912,2.571-3.734c-1.539-0.326-2.902-1.263-3.72-2.657
  c-0.505-0.86-0.753-1.818-0.753-2.774c0-0.575,0.091-1.147,0.268-1.697c-1.386,0.717-3.04,0.851-4.571,0.305
  c-1.524-0.549-2.698-1.708-3.291-3.141c-0.592,1.433-1.771,2.593-3.304,3.145c-1.52,0.544-3.17,0.407-4.557-0.31
  c0.177,0.55,0.268,1.118,0.268,1.693c0,0.959-0.252,1.925-0.759,2.797c-0.815,1.382-2.18,2.315-3.716,2.64
  c1.316,0.814,2.269,2.134,2.565,3.693c0,0,0.017,0.107,0.018,0.113c0.05,0.3,0.076,0.601,0.076,0.902
  c0,1.243-0.432,2.442-1.198,3.41c1.551-0.209,3.153,0.218,4.395,1.233l0.044,0.038c0,0,0.03,0.025,0.045,0.038
  c1.195,1.022,1.874,2.483,1.933,3.999c1.055-1.146,2.563-1.84,4.199-1.843c1.62,0,3.125,0.692,4.181,1.839
  c0.059-1.544,0.763-3.029,2.015-4.064C24.143,24.194,25.747,23.766,27.301,23.975z"/>
<ellipse fill="#D1C194" cx="16.701" cy="17.944" rx="9.024" ry="8.883"/>
<g>
  <g>
    <g>
      <g>
        <path fill="#03505C" d="M6.815,20.304c0-0.068-0.015-0.134-0.018-0.204c-1.259,1.244-2.068,2.713-2.068,3.759
          c0,0.175,0.029,0.328,0.076,0.473C5.993,23.427,6.815,21.785,6.815,20.304z M5.112,24.813c0.754,0.786,2.749,0.973,4.751,0.456
          C8.549,24.439,6.557,24.243,5.112,24.813z M23.526,25.268c2.003,0.518,3.998,0.331,4.753-0.456
          C26.834,24.243,24.842,24.439,23.526,25.268z M26.575,20.302c0,1.483,0.82,3.126,2.01,4.034
          c0.045-0.143,0.076-0.302,0.076-0.474c0-1.047-0.809-2.52-2.069-3.76C26.589,20.169,26.575,20.232,26.575,20.302z M19.721,8.415
          c-0.548-2.011-1.711-3.661-2.756-3.914C17.182,6.068,18.353,7.716,19.721,8.415z M13.67,8.415
          c1.367-0.7,2.537-2.349,2.755-3.914C15.381,4.754,14.217,6.404,13.67,8.415z M10.518,26.608c0,1.751,0.519,3.291,1.312,3.819
          c0.063-0.301,0.125-0.601,0.125-0.92c0-1.32-0.541-2.727-1.39-3.635C10.547,26.118,10.518,26.367,10.518,26.608z M26.749,19.235
          c1.932-0.881,3.359-2.267,3.421-3.327C28.649,16.383,27.209,17.797,26.749,19.235z M12.829,8.715
          c-1.687-1.15-3.616-1.632-4.592-1.15C9.398,8.592,11.299,9.064,12.829,8.715z M8.542,10.648c0-0.989-0.261-1.981-0.744-2.744
          C7.519,8.267,7.373,8.818,7.373,9.487c0,0.917,0.27,2.028,0.766,3.093C8.385,11.994,8.542,11.339,8.542,10.648z M12.354,30.612
          c1.071,0.13,2.698-0.991,3.905-2.698C14.723,28.103,13.096,29.22,12.354,30.612z M30.07,15.396
          c-0.422-0.987-2.281-1.847-4.396-2.03C26.613,14.587,28.472,15.455,30.07,15.396z M3.219,15.908
          c0.058,1.057,1.488,2.447,3.421,3.328C6.18,17.795,4.741,16.383,3.219,15.908z M21.433,29.502c0,0.325,0.061,0.625,0.126,0.926
          c0.793-0.528,1.313-2.068,1.313-3.814c0-0.244-0.03-0.495-0.051-0.74C21.971,26.781,21.433,28.187,21.433,29.502z M25.154,7.564
          c-0.98-0.482-2.907,0-4.591,1.149C22.076,9.056,24.005,8.575,25.154,7.564z M7.718,13.368c-2.113,0.182-3.974,1.04-4.396,2.027
          C4.917,15.453,6.774,14.587,7.718,13.368z M17.128,27.914c1.208,1.707,2.836,2.828,3.906,2.698
          C20.293,29.219,18.662,28.098,17.128,27.914z M25.253,12.579c0.493-1.064,0.765-2.173,0.765-3.089
          c0-0.669-0.147-1.22-0.426-1.581c-0.482,0.76-0.744,1.754-0.744,2.741C24.847,11.339,25.004,11.996,25.253,12.579z"/>
      </g>
    </g>
    <g>
      <path fill="#03505C" d="M13.088,14.005c-1.445-0.418-2.887-0.595-4.171-0.557l0,0c0.604,1.157,1.491,2.342,2.602,3.404
        l4.231,0.548L13.088,14.005z"/>
      <path fill="#03505C" d="M11.363,17.21c-1.384,0.595-2.608,1.372-3.573,2.216v0.002c1.218,0.5,2.668,0.848,4.211,0.96l3.617-2.263
        L11.363,17.21z"/>
      <path fill="#03505C" d="M12.12,20.757c-0.672,1.333-1.105,2.705-1.288,3.963c0,0,0,0.001,0.001,0.001
        c1.261-0.389,2.608-1.043,3.865-1.94l1.295-4.021L12.12,20.757z"/>
      <path fill="#03505C" d="M22.02,16.825c1.071-1.012,1.934-2.138,2.537-3.241v-0.001c-1.334-0.064-2.845,0.103-4.353,0.531
        l-2.569,3.288L22.02,16.825z"/>
      <path fill="#03505C" d="M20.032,13.73c0.163-1.458,0.085-2.868-0.17-4.096l-0.001-0.001c-1.061,0.795-2.103,1.871-2.977,3.146
        l0.183,4.15L20.032,13.73z"/>
      <path fill="#03505C" d="M16.501,12.626c-0.831-1.225-1.811-2.265-2.816-3.046c0,0,0,0-0.001,0
        c-0.292,1.273-0.387,2.746-0.231,4.267l2.871,3.084L16.501,12.626z"/>
      <path fill="#03505C" d="M25.577,19.58c-0.985-0.896-2.251-1.722-3.688-2.347l-4.12,0.893l3.738,2.336
        C22.993,20.363,24.392,20.043,25.577,19.58L25.577,19.58L25.577,19.58z"/>
      <path fill="#03505C" d="M18.73,22.902c1.207,0.875,2.495,1.522,3.712,1.92l0,0c-0.153-1.163-1.059-3.478-1.332-4.155
        l-3.715-1.907L18.73,22.902z"/>
      <path fill="#03505C" d="M15.022,23.01c0.353,1.444,0.919,2.762,1.594,3.839h0c0.72-1.103,1.326-2.459,1.703-3.95l-1.626-3.889
        L15.022,23.01z"/>
    </g>
  </g>
</g>
<g>
  <g>
    <path fill="#8B191B" d="M6.808,17.944c0,5.37,4.438,9.738,9.894,9.738c5.454,0,9.892-4.368,9.892-9.738
      c0-5.37-4.438-9.739-9.892-9.739C11.246,8.205,6.808,12.574,6.808,17.944z M7.224,17.944c0-5.145,4.25-9.33,9.478-9.33
      c5.225,0,9.478,4.185,9.478,9.33c0,5.146-4.253,9.332-9.478,9.332C11.474,27.274,7.224,23.09,7.224,17.944z"/>
    <path fill="#8B191B" d="M18.736,17.939c0,1.112-0.915,2.01-2.042,2.01c-1.123,0-2.038-0.897-2.038-2.01
      c0-1.109,0.915-2.006,2.038-2.006C17.821,15.933,18.736,16.83,18.736,17.939z"/>
  </g>
</g>
<path fill="#D1C194" d="M14.555,17.941c0,1.164,0.961,2.112,2.143,2.112c1.182,0,2.144-0.948,2.144-2.112
  c0-1.162-0.961-2.108-2.144-2.108C15.516,15.833,14.555,16.779,14.555,17.941z M14.762,17.941c0-1.051,0.868-1.905,1.936-1.905
  s1.938,0.854,1.938,1.905c0,1.053-0.87,1.909-1.938,1.909C15.631,19.85,14.762,18.994,14.762,17.941z"/>
</svg>
