<?xml version="1.0" encoding="utf-8"?>
<!-- Generator: Adobe Illustrator 19.2.1, SVG Export Plug-In . SVG Version: 6.00 Build 0)  -->
<svg version="1.1" xmlns="http://www.w3.org/2000/svg" xmlns:xlink="http://www.w3.org/1999/xlink" x="0px" y="0px" width="24px"
	 height="24px" viewBox="0 0 24 24" enable-background="new 0 0 24 24" xml:space="preserve">
<g id="Filled_Icon">
	<g>
		<circle cx="10" cy="13" r="2"/>
		<path d="M22,3V2.5C22,1.122,20.878,0,19.5,0S17,1.122,17,2.5V3H0.5C0.224,3,0,3.224,0,3.5v19C0,22.776,0.224,23,0.5,23h23
			c0.276,0,0.5-0.224,0.5-0.5v-19C24,3.224,23.776,3,23.5,3H22z M12.665,20.546C7.475,22.379,2,18.516,2,13c0-4.411,3.589-8,8-8
			c3.415,0,6.456,2.169,7.567,5.396c0.089,0.262-0.049,0.546-0.311,0.636c-0.261,0.09-0.545-0.049-0.635-0.311
			C15.649,7.898,12.989,6,10,6c-3.86,0-7,3.141-7,7c0,4.826,4.789,8.206,9.332,6.603c0.262-0.09,0.546,0.045,0.638,0.305
			C13.062,20.168,12.925,20.453,12.665,20.546z M10,16c-1.654,0-3-1.346-3-3s1.346-3,3-3s3,1.346,3,3S11.654,16,10,16z M20,12
			c0,0.117-0.041,0.229-0.115,0.319l-2.346,2.831l0.716,0.716c0.196,0.196,0.194,0.514,0,0.707l-1.741,1.741
			c-0.817,0.816-2.129,0.898-2.929,0.1c-0.79-0.79-0.727-2.1,0.101-2.928l1.741-1.741c0.195-0.195,0.512-0.195,0.707,0l0.694,0.694
			l2.057-2.481C18.959,11.87,19,11.757,19,11.64V6.5C19,6.224,19.224,6,19.5,6S20,6.224,20,6.5V12z M21,4.5
			C21,4.776,20.776,5,20.5,5h-2C18.224,5,18,4.776,18,4.5v-2C18,1.673,18.673,1,19.5,1S21,1.673,21,2.5V4.5z"/>
	</g>
</g>
<g id="Invisible_Shape">
	<rect fill="none" width="24" height="24"/>
</g>
</svg>
