<?xml version="1.0" encoding="utf-8"?>
<!-- Generator: Adobe Illustrator 19.2.1, SVG Export Plug-In . SVG Version: 6.00 Build 0)  -->
<svg version="1.1" xmlns="http://www.w3.org/2000/svg" xmlns:xlink="http://www.w3.org/1999/xlink" x="0px" y="0px" width="24px"
	 height="24px" viewBox="0 0 24 24" enable-background="new 0 0 24 24" xml:space="preserve">
<g id="Filled_Icon">
	<g>
		<path d="M21,2.5C21,1.121,19.878,0,18.5,0h-16C1.121,0,0,1.121,0,2.5V4h21V2.5z M3.5,3C3.223,3,3,2.776,3,2.5S3.223,2,3.5,2
			C3.775,2,4,2.224,4,2.5S3.775,3,3.5,3z M5.5,3C5.223,3,5,2.776,5,2.5S5.223,2,5.5,2C5.775,2,6,2.224,6,2.5S5.775,3,5.5,3z M7.5,3
			C7.223,3,7,2.776,7,2.5S7.223,2,7.5,2C7.775,2,8,2.224,8,2.5S7.775,3,7.5,3z"/>
		<path d="M21,13.261V5H0v9.5C0,15.879,1.121,17,2.5,17h9.525C12.424,12.606,17.608,10.454,21,13.261z"/>
		<path d="M23.854,23.146L21,20.293c0.616-0.77,1-1.733,1-2.793c0-2.481-2.018-4.5-4.499-4.5C15.019,13,13,15.019,13,17.5
			c0,2.48,2.019,4.5,4.501,4.5c1.059,0,2.022-0.385,2.792-1l2.854,2.854c0.195,0.194,0.512,0.194,0.707,0
			C24.049,23.659,24.049,23.342,23.854,23.146z M17.501,21C15.57,21,14,19.43,14,17.5c0-1.929,1.57-3.5,3.501-3.5
			C19.43,14,21,15.571,21,17.5C21,19.43,19.43,21,17.501,21z"/>
	</g>
</g>
<g id="Invisible_Shape">
	<rect fill="none" width="24" height="24"/>
</g>
</svg>
